<?xml version="1.0" encoding="UTF-8"?><svg id="uuid-d27eaabf-8e87-4149-9a2d-2aa34b729b08" xmlns="http://www.w3.org/2000/svg" xmlns:xlink="http://www.w3.org/1999/xlink" viewBox="0 0 500 475.88"><defs><clipPath id="uuid-c1e121a7-c49f-4c42-954d-ab932f9618f0"><rect x="-2805" y="2195" width="1510" height="510" style="fill:none;"/></clipPath><clipPath id="uuid-df54768d-c831-46e0-854f-061e91c7fdbf"><rect x="-2805" y="1927.23" width="1510" height="848.68" style="fill:none;"/></clipPath><clipPath id="uuid-6889f5fa-1f39-4ed2-9a11-da439c68c0b9"><rect x="-3252.16" y="1410.37" width="2404.33" height="1602.88" style="fill:none;"/></clipPath></defs><path d="M320.33,71.44c-12.1-29.86,6-63.27,39.57-70.07,21.55-4.37,42.21,1.53,54.9,20.29,3.08,4.56,5.24,9.71,6.43,15.08,2.24,10.1,.99,20.24-3.26,28.66,6.65,1.36,12.86,4.64,17.49,9.83,5.49,6.15,7.94,14.03,7.29,22.22-.28,3.57-1.23,6.82-2.71,9.71,14.96,5.46,28.41,14.6,38.69,26.8,19.17,22.76,24.96,50.66,19.06,79.56-6.22,30.48-25.77,54.95-53.33,66.1,13.38,18.1,18.74,41.91,14.17,64.22-.79,3.87-1.73,7.72-2.79,11.54,6.35,.68,12.69,3.47,17.98,8.55,4.31,4.14,7.39,9.28,9,15.04,3.63,12.99-.77,27.09-9.58,36.98-10.28,11.53-25.17,16.51-40.39,14.81-1.75-.2-3.49-.47-5.21-.83-14.83,36.83-61.43,54.34-98.94,42.07-30.45-9.97-43.42-31.9-49.36-61.93-2.9-14.67-4.21-29.71-4.89-44.64-.64-14.15-4.02-43.16-17.68-51.1-4.14-2.41-9.42-2.41-13.56,0-13.66,7.94-17.04,36.95-17.68,51.1-.87,19.31-2.6,40.66-8.6,59.09-6.52,23.41-22.57,39.92-45.65,47.47-37.49,12.27-84.05-5.21-98.91-42-26.59,5.56-56.28-11.42-56.39-41.29-.05-13.74,8.03-27.13,21.24-31.79l.2-.07,.58-.18,.2-.06c2.02-.56,4.01-.93,5.97-1.12-1.07-3.85-2.02-7.74-2.82-11.64-4.57-22.3,.79-46.11,14.17-64.22-27.55-11.14-47.1-35.61-53.32-66.1-5.9-28.9-.11-56.8,19.06-79.56,10.29-12.21,23.74-21.35,38.72-26.81-.86-1.71-1.55-3.55-2.04-5.53-4.17-16.71,7.63-33.2,24.04-36.28-6.84-13.68-5.31-31.06,3.22-43.67C97.89,2.9,118.55-3,140.1,1.37c33.54,6.79,51.64,40.16,39.6,70,40.57-34.55,99.97-34.19,140.63,.07h0ZM109.8,196.23c-10.58-11.82-17.63-26.31-20.35-42.02-2.17,1.19-4.32,2.58-6.45,4.35-6.91,5.72-11.5,12.76-10.16,22.01,.8,5.51,4.55,10.13,9.51,12.52,8.4,4.05,18.08,4.67,27.45,3.14h0Zm37.52,177.2c-.84-17.47-1.19-35.27-.92-52.79-11.51-1.48-24.98-.03-33.36,6.81-8.38,6.84-11.22,16.72-8.81,27.15,.28,1.21,.55,2.43,.81,3.64,16.09-3.19,32.61,2.49,42.28,15.18h0Zm205.35-.08c9.68-12.64,26.16-18.28,42.22-15.1,.26-1.22,.53-2.43,.81-3.65,3.89-16.84-6.63-30.69-23.33-33.49-6.18-1.04-12.6-1.25-18.86-.47,.1,7.95,.06,15.92-.04,23.86-.12,9.58-.32,19.24-.8,28.84h0Zm57.82-219.19c-2.71,15.73-9.76,30.25-20.36,42.08,9.37,1.53,19.05,.91,27.45-3.14,3.77-1.82,6.76-4.69,8.41-8.56,2.25-5.28,1.52-11.25-1-16.29-3.07-6.14-8.49-10.77-14.51-14.09h0Z" style="fill:#008560; fill-rule:evenodd;"/><path d="M154.8,120.58c8.52-14.85,19.24-28.24,32.22-39.47,36.2-31.31,89.58-30.97,125.9-.02,13.09,11.16,23.88,24.51,32.3,39.47,6.99-2.55,7.64-10.49,6.04-16.84-1.89-7.51-10.9-22.36-15.14-28.52-16.68-24.24-3.65-55.88,26.2-61.93,16.63-3.37,32.48,.49,42.41,15.19,10.27,15.18,6.34,40.32-15.18,44.54-18.88,3.7-28.71-20.91-10.55-30.56-5.42-5.78-19.54,3.64-16.44,14.06,.79,2.67,2.34,5.1,4.13,7.21,7.35,8.67,14.39,18.77,20.01,28.73,13.78-24.99,45.6-17.27,43.92,4.03-.62,7.85-7.18,12.36-14.53,13.49,5.94,3.42,12.89,6.13,19.31,8.43,13.16,4.72,25.01,12.68,34.03,23.39,16.84,19.99,21.65,43.83,16.45,69.29-6.7,32.82-30.98,57.75-64.87,62.19,21.05,15.15,30.89,42.84,25.71,68.11-2.44,11.92-6.45,23.84-10.91,35.14-.82,2.08-1.47,7.09,.35,8.85,.94-1.66,.78-3.8,1.35-5.86,3.78-13.57,18.72-15.62,27.9-6.81,16.5,15.84,.22,49.49-31.2,45.97-5.15-.58-10.23-2.03-14.69-4.64-6.34,39.13-52.62,57.67-87.03,46.41-26.39-8.64-36.23-27.51-41.21-52.73-2.76-13.97-4.03-28.63-4.67-42.83-.88-19.4-5.33-50.38-23.71-61.06-7.92-4.6-17.86-4.6-25.78,0-18.38,10.69-22.84,41.66-23.71,61.06-.8,17.61-2.53,39.17-8.09,56.13-5.4,19.67-18.52,33.12-37.79,39.43-34.41,11.26-80.69-7.28-87.03-46.41-21.46,12.56-52.24-.15-52.33-25.38-.03-8.95,5.16-17.47,13.13-20.28l.18-.06c11.51-3.18,20.28,2.89,21.52,13.91,.11,1,.35,2.24,.86,3.16,1.82-1.75,1.17-6.77,.35-8.85-4.47-11.3-8.47-23.22-10.91-35.14-5.18-25.28,4.66-52.96,25.71-68.11-33.88-4.44-58.17-29.37-64.87-62.19-5.2-25.46-.39-49.31,16.45-69.29,9.02-10.71,20.87-18.67,34.03-23.39,6.42-2.3,13.35-5.01,19.31-8.43-22.42-3.42-16.8-30.99,1.79-32.9,12.25-1.26,21.81,4.89,27.6,15.38,5.62-9.95,12.67-20.07,20.01-28.73,12.83-15.13-5.19-25.77-10.92-22.41-.48,.28-.96,.68-1.39,1.14,18.17,9.65,8.33,34.26-10.55,30.56-21.52-4.22-25.44-29.36-15.18-44.54,9.94-14.69,25.78-18.56,42.41-15.19,29.84,6.05,42.88,37.69,26.2,61.93-4.24,6.16-13.25,21.02-15.14,28.52-1.6,6.36-.95,14.31,6.05,16.84h0Zm-20.71,80.5c-22.22-14.29-34.97-38.41-33.65-65.23-9.65,4.85-15.83,5.58-25.2,13.34-10.28,8.51-16.4,19.58-14.44,33.13,1.38,9.51,7.65,17.58,16.26,21.73,17.79,8.57,39.61,5.51,57.03-2.97h0Zm24.69,109.74c-16.4-4.83-39.33-4.31-53.44,7.22-11.99,9.8-16.42,24.36-12.97,39.3,1.31,5.66,2.44,11.67,3.2,17.56,19.51-12.24,44.08-2.86,47.64,19.29,3.37,20.94-24.56,29.39-31.82,9.94-5.09,16.03,34.67,26.88,44.29,4.24,3.49-8.23,4.65-19.2,4.15-28.18-1.14-20.32-1.69-48.54-1.06-69.37h0Zm182.35,0c.58,19.24,.16,51.37-1.06,69.43-.62,8.62,.8,20.22,4.15,28.11,9.62,22.64,49.38,11.8,44.29-4.23-7.24,19.43-35.19,11.01-31.82-9.95,3.56-22.13,28.13-31.54,47.65-19.29,.77-5.89,1.89-11.9,3.2-17.56,5.51-23.83-9.65-44.27-33.16-48.22-10.99-1.84-22.52-1.45-33.24,1.7h0Zm58.34-174.97c1.32,26.82-11.43,50.94-33.65,65.23,17.42,8.48,39.24,11.54,57.03,2.97,24.41-11.77,23.67-48.85-13.54-63.88-3.02-1.22-6.59-2.68-9.84-4.31h0Z"/><path d="M250,170.32c-10.58-18.45-22.53-26.81-22.53-26.81,0,0,15.62,6.7,22.53,13.41,6.92-6.71,22.53-13.41,22.53-13.41,0,0-11.95,8.36-22.53,26.81h0Zm64.09-51.21s19.14,3.31,28.98,24.4c0,0-3.65-17.03-24.49-40.8-9.91-11.31-22.02-20.55-35.83-26.5-9.31-4.01-20.57-7.58-32.75-7.42-12.19-.16-23.44,3.41-32.75,7.42-13.8,5.95-25.92,15.19-35.83,26.5-20.84,23.78-24.49,40.8-24.49,40.8,9.84-21.08,28.98-24.4,28.98-24.4-10.56,5.44-16.78,14.11-20.4,21.77-5.55,11.72-6.04,25.19-.99,37.13,5.11,12.07,13.4,17.7,13.4,17.7,0,0,1.73-7.02,3.56-10.67,0,0-4.18-3.16-7.55-8.82-2.51-4.23-3.53-9.18-3.09-14.08,.34-3.71,1.07-8.5,2.66-12.48,0,0-.58,10.96,5.29,20.57,0,0-.67-12.01,6.83-19.51,0,0-2.79-.67-6.15-1.06,0,0,15.67-13.26,39.89,12.3,0,0-12.88-6.25-27.68-9.13,0,0-10.96,5.96-4.81,24.51,0,0,5.19-5.29,16.24-8.27,0,0,15.26,12.45,26.67,20.69,1.53,1.1,3.52,1.48,5.28,.81,1.39-.53,2.8-1.67,3.52-4.01,.56-1.82,.44-3.78-.14-5.6-.88-2.76-3.02-7.3-8.26-12.55,0,0,9.77,3.01,16.73,17.57,1.23,2.58,4.91,2.58,6.14,0,6.96-14.56,16.73-17.57,16.73-17.57-5.24,5.25-7.38,9.79-8.26,12.55-.58,1.82-.7,3.77-.14,5.6,.72,2.35,2.14,3.48,3.53,4.01,1.76,.67,3.75,.3,5.28-.81,11.42-8.24,26.68-20.69,26.68-20.69,11.05,2.98,16.24,8.27,16.24,8.27,6.15-18.55-4.81-24.51-4.81-24.51-14.8,2.88-27.68,9.13-27.68,9.13,24.22-25.57,39.89-12.3,39.89-12.3-3.36,.38-6.15,1.06-6.15,1.06,7.5,7.5,6.82,19.51,6.82,19.51,5.86-9.61,5.29-20.57,5.29-20.57,1.59,3.97,2.32,8.77,2.65,12.48,.44,4.9-.57,9.85-3.09,14.08-3.37,5.66-7.55,8.82-7.55,8.82,1.83,3.65,3.56,10.67,3.56,10.67,0,0,8.3-5.62,13.4-17.7,5.05-11.94,4.56-25.41-.98-37.13-3.63-7.67-9.84-16.34-20.4-21.77h0Z" style="fill:#00634b;"/><path d="M178.36,239.71c-2.22,.28-4.51-2.79-5.69-7.25,1.49,2.26,3.09,3.4,3.09,3.4-3.32-6.6-1.55-14.27-1.55-14.27-1.21,1.17-1.93,2.77-2.33,4.01,.13-4.41,1.57-7.75,3.73-8.02,2.72-.34,5.55,4.34,6.31,10.45,.76,6.11-.83,11.34-3.55,11.68h0Zm16.48-10.53c-.95-5.4-3.61-8.33-5.32-9.7-.77-.62-1.69-1.03-2.66-1.22-6.38-1.27-11.66-3.06-11.66-3.06-2.08,2.05-3.34,4.34-4.09,6.48-1.7,4.85-1.13,10.19,1.14,14.8,2.01,4.08,4.44,5.58,4.44,5.58,8.36-1.38,16.08-.63,16.08-.63,1.93-3.7,2.24-7.77,2.26-9.87,0-.79-.05-1.59-.18-2.37h0Z" style="fill:#00634b;"/><path d="M170.57,211.87s-10.45-2.3-17.9-4.96c0,0-44.81,22.21-76.72,8.78,0,0,5.86,6.01,15.39,9.51-36.17-2.85-43.54-31.46-42.05-48.24,2.83-31.95,32.14-44.86,37.95-47.11,1.2-.47,2.39-.95,3.57-1.48,3.15-1.43,5.61-2.86,7.51-4.18,4.6-3.2,7.55-8.25,8.02-13.84,.58-6.93-2.03-12.25-4.49-15.62-2.4-3.29-5.89-5.69-9.87-6.5-3.83-.78-6.73,.05-8.63,1.05-2.08,1.09-3.47,3.26-3.28,5.6,.24,3.02,2.21,3.85,3.54,4.1,8.17,1.51,11.23,4.93,13.13,8.25,2.03,3.54,2.17,7.9,0,11.36-4.18,6.67-13.7,7.09-13.7,7.09,8.62-3.15,9.48-9.24,9.48-9.24-1.52,1.36-3.58,2.71-5.62,3.91-3.23,1.89-6.62,3.5-10.11,4.84-13.18,5.05-22.78,11.16-28.87,15.76-5.94,4.48-10.98,10.05-14.67,16.51-8.86,15.51-9.84,31.98-8.85,43.9,1.09,13.16,5.91,25.82,14.04,36.22,28.83,36.88,78.56,23.87,78.56,23.87-21.74-3.6-27.79-17.94-27.79-17.94,38.74,23.41,77.76-2.08,77.76-2.08-7.78-15.27,3.6-29.56,3.6-29.56h0Z" style="fill:#00634b;"/><path d="M183.46,248.79s-.14,27.79-33.78,30.64c0,0,6.56,3.71,16.89,5.7,0,0-2.49,5.42-3.35,13.68,0,0-22.95-9.69-52.3,2.28,0,0,6.13-5.56,16.96-8.69,0,0-8.94-1.24-19.43,2.96-6.67,2.67-12.32,7.36-16.39,13.28-6.25,9.09-14.36,26.32-10.5,51.32,0,0,1.79,10.18,3.59,20.33,.9,5.08,.36,10.35-1.81,15.02-1.62,3.5-4.29,7.12-8.69,9.7-4.14,2.43-8.99,3.32-13.77,2.92-6.67-.56-16.73-3.4-21.12-14.89-.95-2.49-1.24-5.22-.54-7.79,.73-2.67,2.57-5.6,7.02-6.66,1.87-.44,3.88,.21,5.05,1.74,.02,.03,.04,.05,.06,.08,.72,.97,1.1,2.15,1.18,3.35,.18,2.7,1.44,11.16,10.2,13.96,4.01,1.28,8.42,.79,12.13-1.21,1.43-.77,2.9-1.79,4.05-3.08,0,0-3.77,1.08-9.86,1.41,0,0,9.96-4.09,5.53-20.58,0,0-4.83-14.32-8.71-25.54-1.59-4.6-2.61-9.37-2.93-14.22-.37-5.63-.21-13.21,1.81-21.3,1.99-7.98,6.04-15.32,11.74-21.26,7.3-7.6,20.34-17.63,41.02-22.25,0,0,18.53-4.39,27.88-7.66,13.51-4.72,20.92-11.67,38.08-13.24h0Z" style="fill:#00634b;"/><path d="M135.6,109.24c1.58-6.44,6.33-21.45,19.24-40.56,2.58-3.82,4.34-8.17,5-12.74,.88-6.18,.05-14.22-6.72-21.77-3.31-3.7-7.49-6.54-12.09-8.39-5.36-2.14-13.64-4.23-22.3-1.79-8.59,2.42-15.47,9.11-17.47,17.81-.84,3.68-.9,7.97,1.01,12.38,1.71,3.95,5.01,7.1,9.21,8.07,2.56,.6,5.41,.37,7.35-2.41,1.18-1.69,.99-4.02-.44-5.5-.27-.28-.58-.56-.95-.86-.58-.46-1.23-.83-1.9-1.15-1.46-.7-4.63-2.43-6.81-5.19-2.07-2.63-2.56-6.18-1.49-9.35,.78-2.31,2.36-5.27,5.58-7.8,0,0-1.45,3.1-1.73,6.91,0,0,8.76-13.77,25.83-3.75,4.15,2.44,7.61,5.96,9.59,10.34,2.17,4.8,3.37,11.74-.51,20.35,0,0-3.28,7.17-11.7,17.68-4.77,5.95-8.98,12.36-12.33,19.22-2.72,5.57-5.37,12.18-7.17,19.6-3.81,15.75-2.09,32.27,4.86,46.91,1.94,4.08,4.35,8.16,7.34,11.62,0,0,.26-7.89,.91-11.7,0,0,9.03,20.1,31.7,28.1,0,0-24.32-21.43-7.77-62.18,0,0-7-4.11-10.55-8.66,0,0,1.67,11.88,4.78,20.54,0,0-11.95-11.01-11.38-29.35,.07-2.15,.4-4.29,.92-6.39h0Z" style="fill:#00634b;"/><path d="M318.51,228.04c.76-6.11,3.59-10.79,6.31-10.45,2.16,.27,3.6,3.61,3.73,8.02-.41-1.24-1.12-2.84-2.33-4.01,0,0,1.77,7.67-1.55,14.27,0,0,1.6-1.14,3.09-3.4-1.18,4.46-3.47,7.52-5.69,7.25-2.72-.34-4.31-5.57-3.55-11.68h0Zm-13.11,3.52c.02,2.11,.34,6.17,2.26,9.87,0,0,7.72-.75,16.08,.63,0,0,2.43-1.5,4.43-5.58,2.26-4.61,2.84-9.95,1.14-14.8-.75-2.15-2.01-4.44-4.09-6.48,0,0-5.28,1.79-11.66,3.06-.97,.19-1.88,.6-2.65,1.22-1.71,1.37-4.36,4.3-5.32,9.7-.14,.78-.19,1.58-.18,2.37h0Z" style="fill:#00634b;"/><path d="M329.85,211.87s10.45-2.3,17.89-4.96c0,0,44.81,22.21,76.72,8.78,0,0-5.86,6.01-15.39,9.51,36.17-2.85,43.54-31.46,42.05-48.24-2.83-31.95-32.14-44.86-37.95-47.11-1.2-.47-2.39-.95-3.57-1.48-3.15-1.43-5.61-2.86-7.51-4.18-4.6-3.2-7.55-8.26-8.02-13.84-.58-6.93,2.03-12.25,4.49-15.62,2.4-3.29,5.89-5.69,9.87-6.5,3.83-.78,6.73,.05,8.63,1.05,2.08,1.09,3.46,3.26,3.28,5.6-.24,3.02-2.21,3.85-3.54,4.1-8.17,1.51-11.23,4.93-13.13,8.25-2.03,3.54-2.17,7.9-.01,11.36,4.18,6.67,13.7,7.09,13.7,7.09-8.62-3.15-9.48-9.24-9.48-9.24,1.52,1.36,3.58,2.71,5.62,3.91,3.23,1.89,6.62,3.5,10.11,4.84,13.18,5.05,22.78,11.16,28.87,15.76,5.94,4.48,10.98,10.05,14.67,16.51,8.86,15.51,9.84,31.98,8.85,43.9-1.09,13.16-5.91,25.82-14.04,36.22-28.83,36.88-78.56,23.87-78.56,23.87,21.75-3.6,27.79-17.94,27.79-17.94-38.74,23.41-77.76-2.08-77.76-2.08,7.78-15.27-3.6-29.56-3.6-29.56h0Z" style="fill:#00634b;"/><path d="M316.96,248.79s.14,27.79,33.78,30.64c0,0-6.56,3.71-16.89,5.7,0,0,2.49,5.42,3.35,13.68,0,0,22.94-9.69,52.3,2.28,0,0-6.13-5.56-16.96-8.69,0,0,8.93-1.24,19.43,2.96,6.67,2.67,12.32,7.36,16.39,13.28,6.25,9.09,14.36,26.32,10.5,51.32,0,0-1.79,10.18-3.59,20.33-.9,5.08-.36,10.35,1.81,15.02,1.62,3.5,4.3,7.12,8.69,9.7,4.14,2.43,8.99,3.32,13.77,2.92,6.67-.56,16.73-3.4,21.12-14.89,.95-2.49,1.24-5.22,.54-7.79-.73-2.67-2.57-5.6-7.02-6.66-1.87-.44-3.87,.21-5.05,1.74l-.06,.08c-.72,.97-1.1,2.15-1.18,3.35-.18,2.7-1.44,11.16-10.2,13.96-4.01,1.28-8.42,.79-12.12-1.21-1.43-.77-2.9-1.79-4.05-3.08,0,0,3.77,1.08,9.86,1.41,0,0-9.96-4.09-5.53-20.58,0,0,4.83-14.32,8.71-25.54,1.59-4.6,2.61-9.37,2.93-14.22,.37-5.63,.21-13.21-1.81-21.3-1.99-7.98-6.04-15.32-11.74-21.26-7.3-7.6-20.34-17.63-41.02-22.25,0,0-18.53-4.39-27.88-7.66-13.51-4.72-20.92-11.67-38.08-13.24h0Z" style="fill:#00634b;"/><path d="M364.82,109.24c-1.59-6.44-6.33-21.45-19.24-40.56-2.58-3.82-4.34-8.17-5-12.74-.88-6.18-.05-14.22,6.72-21.77,3.31-3.7,7.49-6.54,12.09-8.39,5.36-2.14,13.64-4.23,22.3-1.79,8.59,2.42,15.47,9.11,17.47,17.81,.84,3.68,.9,7.97-1.01,12.38-1.71,3.95-5.01,7.1-9.21,8.07-2.56,.6-5.41,.37-7.35-2.41-1.18-1.69-.99-4.02,.44-5.5,.27-.28,.58-.56,.95-.86,.58-.46,1.23-.83,1.9-1.15,1.46-.7,4.63-2.43,6.81-5.19,2.07-2.63,2.56-6.18,1.49-9.35-.78-2.31-2.36-5.27-5.58-7.8,0,0,1.45,3.1,1.73,6.91,0,0-8.76-13.77-25.83-3.75-4.15,2.44-7.61,5.96-9.59,10.34-2.17,4.8-3.37,11.74,.51,20.35,0,0,3.28,7.17,11.7,17.68,4.77,5.95,8.98,12.36,12.33,19.22,2.72,5.57,5.37,12.18,7.17,19.6,3.81,15.75,2.09,32.27-4.86,46.91-1.93,4.08-4.35,8.16-7.34,11.62,0,0-.26-7.89-.91-11.7,0,0-9.03,20.1-31.7,28.1,0,0,24.32-21.43,7.77-62.18,0,0,7-4.11,10.55-8.66,0,0-1.67,11.88-4.78,20.54,0,0,11.95-11.01,11.38-29.35-.07-2.15-.4-4.29-.91-6.39h0Z" style="fill:#00634b;"/><path d="M406.93,394.52c-4.17-10.25-12.42-13.22-18.62-13.92-6.28-.7-12.66,1.45-16.83,6.21-3.55,4.06-4.13,8.42-4.16,10.62-.01,.92,.1,1.85,.45,2.7,.94,2.32,2.82,3.46,4.66,4.01,2.41,.72,4.92-.73,5.61-3.14,.58-2.03,1.34-3.92,2.06-5.5,1.7-3.73,4.93-6.62,8.93-7.54,10.19-2.35,15.06,9.14,15.06,9.14-6.71-6.99-11.83-4.66-11.83-4.66,6.86,3.96,8.2,10.01,7.7,15.3-.59,6.28-4.03,11.91-9.04,15.74-13.13,10.02-25.67,10.26-34.99,7.95-12.26-3.04-21.59-12.84-24.53-25.13-4.43-18.48-1.81-41.62-1.81-41.62,.36-11.37,.59-17.03,1.09-24.34,1.73-25.67-.78-42.59-3.38-52.6-2.08-8.02-6.49-15.22-12.6-20.81-9.97-9.11-20.52-13.89-20.52-13.89,9.37,1.96,14.28,4.22,14.28,4.22-9.55-10.18-23.28-9.55-23.28-9.55,8.18-3.27,15.74-4.83,15.74-4.83-12.07-16.09,.1-31.32,.1-31.32-1.05,4.02-.77,8.52-.77,8.52,1.64-1.5,4.34-4.43,5.62-5.83,.45-.5,1.08-.8,1.75-.85,2.83-.21,5.57-.55,5.57-.55,1.89-3.52,2.73-7.08,3.07-10.04,.54-4.61-.29-9.3-2.29-13.48-3.41-7.13-8.07-9.77-8.07-9.77,0,0,7.75,25.67-20.5,37.26,0,0,4.22-3.83,4.7-10.54,0,0-10.73,6.99-23.56,2.2,0,0,0,6.87,8.33,9.09,0,0-5.22,2.11-9.45-.98-1.45-1.06-2.49-2.62-3-4.35-.84-2.8-3.72-9.46-12.41-9.46s-11.57,6.66-12.41,9.46c-.52,1.73-1.55,3.29-3.01,4.35-4.23,3.09-9.45,.98-9.45,.98,8.33-2.22,8.33-9.09,8.33-9.09-12.84,4.79-23.56-2.2-23.56-2.2,.48,6.71,4.7,10.54,4.7,10.54-28.25-11.59-20.5-37.26-20.5-37.26,0,0-4.66,2.63-8.07,9.77-2,4.19-2.82,8.87-2.29,13.48,.34,2.96,1.19,6.52,3.07,10.04,0,0,2.74,.34,5.57,.55,.67,.05,1.29,.35,1.75,.85,1.27,1.4,3.98,4.33,5.62,5.83,0,0,.29-4.5-.77-8.52,0,0,12.17,15.23,.1,31.32,0,0,7.55,1.55,15.73,4.83,0,0-13.73-.64-23.28,9.55,0,0,4.91-2.26,14.28-4.22,0,0-10.56,4.78-20.52,13.89-6.11,5.59-10.52,12.8-12.6,20.81-2.6,10.01-5.11,26.93-3.38,52.6,.49,7.31,.73,12.97,1.09,24.34,0,0,2.62,23.14-1.81,41.62-2.94,12.29-12.27,22.08-24.53,25.13-9.32,2.31-21.86,2.07-34.99-7.95-5.01-3.82-8.44-9.46-9.04-15.74-.5-5.28,.84-11.34,7.7-15.3,0,0-5.12-2.33-11.83,4.66,0,0,4.88-11.48,15.06-9.14,4,.92,7.23,3.81,8.93,7.54,.72,1.57,1.47,3.46,2.05,5.5,.69,2.41,3.21,3.86,5.62,3.14,1.84-.55,3.72-1.69,4.66-4.01,.35-.85,.46-1.78,.45-2.7-.03-2.2-.61-6.56-4.16-10.62-4.16-4.76-10.54-6.91-16.83-6.21-6.2,.69-14.45,3.67-18.62,13.92-1.52,3.75-2.12,7.83-1.88,11.87,.48,8.14,3.83,22.96,20.28,34.5,8.19,5.75,17.79,9.22,27.75,10.29,15.71,1.69,40.3-.44,52.47-26.5,0,0,5.49-10.59,7.99-27.62,.77-5.24,1.1-10.53,1.13-15.83,.1-16.29,3.03-92.19,49.21-91.83,46.17-.36,49.11,75.54,49.21,91.83,.03,5.3,.36,10.59,1.13,15.83,2.5,17.03,7.99,27.62,7.99,27.62,12.17,26.06,36.76,28.19,52.47,26.5,9.95-1.07,19.55-4.54,27.75-10.29,16.45-11.54,19.79-26.36,20.28-34.5,.24-4.04-.36-8.12-1.88-11.87h0Z" style="fill:#00634b;"/><path d="M212.91,199.18s7.57,3.33,19.47,2.72c0,0-9.28-10.7-21.39-15.54,0,0-.71,6.76,1.92,12.81h0Z" style="fill:#f5a800;"/><path d="M287.85,199.18s-7.57,3.33-19.47,2.72c0,0,9.28-10.7,21.39-15.54,0,0,.71,6.76-1.92,12.81h0Z" style="fill:#f5a800;"/><path d="M214.6,188.01c-.01,12.29,11.45,12.08,15.59,11.59-2.94-2.93-8.62-8.03-15.59-11.59h0Z" style="fill:#e9fe77;"/><path d="M286.16,188.01c.01,12.29-11.45,12.08-15.59,11.59,2.94-2.93,8.62-8.03,15.59-11.59h0Z" style="fill:#e9fe77;"/><path d="M142.75,161.06s.51-9.63,2.44-16.98c-2.75-2.96-10.98-13.15-10.5-28.45,.07-2.15,.4-4.29,.92-6.39,.69-2.82,1.99-7.28,4.32-13.01l-5.47-.35c-6.33,9.05-15.32,26.63-10.32,48.73,0,0,2.5-4.88,3.55-6.48,0,0-1.22,15.68,8.25,25.76,0,0-.11-9.64,1.39-16.67,0,0,1.83,6.76,5.43,13.85h0Z" style="fill:#24a656;"/><path d="M108.56,61.17c1.04-.13,2.17-.46,3.23-1.16,1.89-1.26,2.49-3.76,1.47-5.78-.23-.46-.5-.95-.82-1.46-.78-1.25-1.42-2.55-1.93-3.73-.63-.56-1.24-1.19-1.79-1.89-2.07-2.63-2.56-6.18-1.49-9.35,.78-2.31,2.36-5.27,5.58-7.8,0,0-.37,.79-.77,2.06,1.58-.76,4.81-2,9.07-2.09,4.06-.99,9.33-.61,15.8,3.19,.66,.39,1.29,.81,1.91,1.25h.03s6.76,2.42,11.79,9.1c2.42,3.21,3.88,7.05,4.16,11.06,.13,1.8,.13,3.98-.17,6.46-.42,3.55-1.53,6.98-3.14,10.17-.36,.71-.77,1.5-1.22,2.34l1.26,.22c1.04-1.67,2.13-3.36,3.3-5.09,2.58-3.82,4.34-8.17,5-12.74,.88-6.18,.05-14.22-6.72-21.77-3.31-3.7-7.49-6.54-12.09-8.39-5.36-2.14-13.64-4.23-22.3-1.79-8.59,2.42-15.47,9.11-17.47,17.81-.84,3.68-.9,7.97,1.01,12.38,1.29,2.98,3.49,5.51,6.3,6.98h0Z" style="fill:#24a656;"/><path d="M146.96,79.3c-1.98,3.2-4.36,6.66-7.08,9.87,0,0,1.61-.03,3.16-.01,1.43-3.01,3.1-6.23,5.06-9.67l-1.14-.2h0Z" style="fill:#24a656;"/><path d="M152.9,228.65s-11.34-.61-15.75-1.64c0,0,18.11-2.47,27.04-16.68-3.51-.9-7.87-2.12-11.51-3.42,0,0-27.46,13.61-54.7,13.08,2.61,1.62,6.22,3.69,9.58,4.97,0,0-10.82,.89-16.22,.24-36.17-2.85-43.54-31.46-42.05-48.24,1.95-21.97,16.41-34.93,27.15-41.62-.02,0-21.81,7.85-32.35,32.4,0,0,.23-8.34,2.2-14.14,0,0-7.11,5.87-11.52,20.04l-7.72-1.41c-.9,3.12-1.55,6.21-2.01,9.23l7.59,1.06c-.41,2.31-.73,4.77-.96,7.39l-7.45-.57c-.1,1.86-.13,3.67-.12,5.43l7.36,.23c0,15.8,6.47,31.09,18.54,41.46,9.75,8.38,24.61,15.35,47.12,16.55-5.89-4.73-7.92-9.52-7.92-9.52l-3.58-3.77s35.92,10.28,67.28-11.08h0Z" style="fill:#24a656;"/><path d="M85.77,92.71c.51,1.75,1.82,3.13,3.45,3.93,1.96,.96,5.18,2.77,7.25,5.14,0,0-.46-4.28-1.16-5.91,0,0,14.17,14.59,1.7,29.16,.46-.29,.9-.58,1.31-.87,4.6-3.2,7.55-8.25,8.02-13.84,.58-6.93-2.03-12.25-4.49-15.62-2.4-3.29-5.89-5.69-9.87-6.5-1.84-.38-3.46-.37-4.86-.16-1.11,1.03-1.96,2.55-1.34,4.66h0Z" style="fill:#24a656;"/><path d="M117.5,269.68c-20.68,4.62-33.71,14.65-41.02,22.25-5.7,5.93-9.75,13.27-11.74,21.26-2.02,8.1-2.18,15.67-1.81,21.3,.32,4.85,1.34,9.63,2.93,14.22,2.51,7.26,5.42,15.82,7.16,20.96,2.7-6.83,3.6-15.74,4.14-20.98,3.52-34.38,18.51-44.54,18.51-44.54h0c3.57-3.8,7.9-6.84,12.78-8.8,2.25-.9,4.41-1.54,6.44-2,4.2-2.1,8.95-3.64,13.5-4.75,2,2.32,4.18,5.21,5.36,6.84,2.81-.26,5.46-.35,7.95-.32-2.77-3.74-5.81-6.53-7.28-7.78,7.37-1.32,13.07-1.57,13.07-1.57-6.87-4.89-10.58-8.86-10.58-8.86,15.47-6.21,19.83-15.47,19.83-15.47-4.71,.95-11.98,1.99-18.54,2.84-9.41,2.73-20.71,5.41-20.71,5.41h0Z" style="fill:#24a656;"/><path d="M74.84,396.52c-3.71,2-8.11,2.49-12.13,1.21-8.76-2.79-10.02-11.26-10.2-13.96-.08-1.2-.46-2.38-1.18-3.35-.02-.03-.04-.05-.06-.08-.49-.64-1.13-1.11-1.83-1.43-2.33,.31-3.69,1.52-4.48,2.8-.98,1.59-1.15,3.57-.6,5.35,1.69,5.53,4.97,8.99,8.24,11.15,4.62,3.04,10.3,3.94,15.75,2.98,11.3-1.99,14.38-9.18,14.38-9.18-1.71,1.07-3.4,1.88-4.92,2.49-.93,.8-1.95,1.48-2.96,2.03h0Z" style="fill:#24a656;"/><path d="M80.99,372.1c-1.22,3.58-3.42,6.26-5.37,8.08,.41,5.22-.89,8.72-2.44,10.98,12.33-3.56,7.81-19.05,7.81-19.05h0Z" style="fill:#24a656;"/><path d="M186.86,218.26c-6.38-1.27-11.66-3.06-11.66-3.06,0,0,1.32,1.09,2.44,3.02,1.97,1.47,3.7,5.24,4.27,9.81,.63,5.04-.35,9.47-2.23,11.06-.68,.92-1.68,2.04-3,2.96,2.06-.34,4.08-.55,5.96-.67,.78-.54,1.69-1.26,2.59-2.18,2.26-2.29,3.19-5.59,2.48-8.73-.5-2.2-1.38-4.95-2.9-7.49,0,0,4.89,2.88,7.52,6.38,0,0,.19-5.45-4.3-10.76-.38-.15-.77-.28-1.17-.36h0Z" style="fill:#24a656;"/><path d="M173.89,239.23c.28-.61,.63-1.31,.9-1.82-.86-1.26-1.6-2.96-2.12-4.94-1.27-3.46-.79-6.86-.79-6.86,.08-2.77,.68-5.12,1.65-6.55-.26-.38-.49-.71-.67-.96-.77,1.2-1.34,2.41-1.75,3.59-1.7,4.85-1.13,10.19,1.14,14.8,.54,1.09,1.11,2,1.65,2.74h0Z" style="fill:#24a656;"/><path d="M357.68,161.06s-.51-9.63-2.44-16.98c2.75-2.96,10.98-13.15,10.5-28.45-.07-2.15-.4-4.29-.91-6.39-.69-2.82-1.99-7.28-4.32-13.01l5.47-.35c6.33,9.05,15.32,26.63,10.32,48.73,0,0-2.5-4.88-3.55-6.48,0,0,1.22,15.68-8.25,25.76,0,0,.11-9.64-1.38-16.67,0,0-1.83,6.76-5.43,13.85h0Z" style="fill:#24a656;"/><path d="M391.86,61.17c-1.04-.13-2.17-.46-3.23-1.16-1.89-1.26-2.49-3.76-1.47-5.78,.23-.46,.5-.95,.82-1.46,.78-1.25,1.42-2.55,1.93-3.73,.63-.56,1.24-1.19,1.79-1.89,2.07-2.63,2.56-6.18,1.49-9.35-.78-2.31-2.36-5.27-5.58-7.8,0,0,.37,.79,.77,2.06-1.58-.76-4.81-2-9.07-2.09-4.06-.99-9.33-.61-15.8,3.19-.66,.39-1.29,.81-1.91,1.25h-.03s-6.76,2.42-11.79,9.1c-2.42,3.21-3.88,7.05-4.16,11.06-.13,1.8-.12,3.98,.17,6.46,.42,3.55,1.53,6.98,3.14,10.17,.36,.71,.77,1.5,1.22,2.34l-1.26,.22c-1.04-1.67-2.13-3.36-3.3-5.09-2.58-3.82-4.34-8.17-5-12.74-.88-6.18-.05-14.22,6.72-21.77,3.31-3.7,7.49-6.54,12.09-8.39,5.36-2.14,13.64-4.23,22.3-1.79,8.59,2.42,15.47,9.11,17.47,17.81,.84,3.68,.9,7.97-1.01,12.38-1.29,2.98-3.49,5.51-6.3,6.98h0Z" style="fill:#24a656;"/><path d="M353.46,79.3c1.98,3.2,4.36,6.66,7.08,9.87,0,0-1.61-.03-3.17-.01-1.43-3.01-3.1-6.23-5.06-9.67l1.14-.2h0Z" style="fill:#24a656;"/><path d="M347.52,228.65s11.34-.61,15.75-1.64c0,0-18.11-2.47-27.04-16.68,3.51-.9,7.87-2.12,11.51-3.42,0,0,27.46,13.61,54.7,13.08-2.61,1.62-6.22,3.69-9.58,4.97,0,0,10.82,.89,16.22,.24,36.17-2.85,43.54-31.46,42.05-48.24-1.95-21.97-16.41-34.93-27.15-41.62,.02,0,21.81,7.85,32.35,32.4,0,0-.23-8.34-2.2-14.14,0,0,7.11,5.87,11.52,20.04l7.72-1.41c.9,3.12,1.55,6.21,2.01,9.23l-7.59,1.06c.41,2.31,.73,4.77,.96,7.39l7.45-.57c.1,1.86,.13,3.67,.12,5.43l-7.36,.23c0,15.8-6.47,31.09-18.54,41.46-9.75,8.38-24.61,15.35-47.12,16.55,5.89-4.73,7.92-9.52,7.92-9.52l3.58-3.77s-35.92,10.28-67.28-11.08h0Z" style="fill:#24a656;"/><path d="M414.65,92.71c-.51,1.75-1.82,3.13-3.45,3.93-1.96,.96-5.18,2.77-7.25,5.14,0,0,.46-4.28,1.16-5.91,0,0-14.17,14.59-1.7,29.16-.46-.29-.9-.58-1.31-.86-4.6-3.2-7.55-8.26-8.02-13.84-.58-6.93,2.03-12.25,4.49-15.62,2.4-3.29,5.89-5.69,9.87-6.5,1.84-.38,3.46-.37,4.86-.16,1.11,1.03,1.96,2.55,1.34,4.66h0Z" style="fill:#24a656;"/><path d="M382.92,269.68c20.68,4.62,33.71,14.65,41.02,22.25,5.7,5.93,9.75,13.27,11.74,21.26,2.02,8.1,2.18,15.67,1.81,21.3-.32,4.85-1.34,9.63-2.93,14.22-2.51,7.26-5.42,15.82-7.16,20.96-2.7-6.83-3.6-15.74-4.14-20.98-3.52-34.38-18.51-44.54-18.51-44.54h0c-3.57-3.8-7.9-6.84-12.78-8.8-2.24-.9-4.41-1.54-6.44-2-4.2-2.1-8.95-3.64-13.5-4.75-2,2.32-4.18,5.21-5.36,6.84-2.81-.26-5.46-.35-7.95-.32,2.77-3.74,5.81-6.53,7.28-7.78-7.37-1.32-13.07-1.57-13.07-1.57,6.88-4.89,10.58-8.86,10.58-8.86-15.47-6.21-19.83-15.47-19.83-15.47,4.71,.95,11.98,1.99,18.54,2.84,9.41,2.73,20.71,5.41,20.71,5.41h0Z" style="fill:#24a656;"/><path d="M425.58,396.52c3.7,2,8.11,2.49,12.12,1.21,8.76-2.79,10.02-11.26,10.2-13.96,.08-1.2,.46-2.38,1.18-3.35l.06-.08c.49-.64,1.13-1.11,1.83-1.43,2.33,.31,3.69,1.52,4.48,2.8,.98,1.59,1.15,3.57,.6,5.35-1.69,5.53-4.97,8.99-8.24,11.15-4.62,3.04-10.3,3.94-15.74,2.98-11.3-1.99-14.38-9.18-14.38-9.18,1.71,1.07,3.4,1.88,4.92,2.49,.92,.8,1.95,1.48,2.96,2.03h0Z" style="fill:#24a656;"/><path d="M419.43,372.1c1.22,3.58,3.42,6.26,5.37,8.08-.41,5.22,.89,8.72,2.44,10.98-12.33-3.56-7.81-19.05-7.81-19.05h0Z" style="fill:#24a656;"/><path d="M313.56,218.26c6.38-1.27,11.66-3.06,11.66-3.06,0,0-1.32,1.09-2.44,3.02-1.97,1.47-3.7,5.24-4.27,9.81-.63,5.04,.34,9.47,2.23,11.06,.68,.92,1.68,2.04,3,2.96-2.06-.34-4.08-.55-5.96-.67-.78-.54-1.69-1.26-2.59-2.18-2.26-2.29-3.19-5.59-2.48-8.73,.5-2.2,1.38-4.95,2.9-7.49,0,0-4.89,2.88-7.52,6.38,0,0-.19-5.45,4.3-10.76,.38-.15,.77-.28,1.17-.36h0Z" style="fill:#24a656;"/><path d="M326.53,239.23c-.28-.61-.63-1.31-.9-1.82,.86-1.26,1.6-2.96,2.12-4.94,1.27-3.46,.79-6.86,.79-6.86-.08-2.77-.68-5.12-1.65-6.55,.26-.38,.49-.71,.67-.96,.77,1.2,1.33,2.41,1.75,3.59,1.7,4.85,1.13,10.19-1.14,14.8-.54,1.09-1.11,2-1.65,2.74h0Z" style="fill:#24a656;"/><path d="M292,88.51c-2.3-4.63-4.74-7.29-4.74-7.29l-24.48-7.95-44.06,4.61-5.99,3.33s-2.44,2.65-4.74,7.29c-3.57,7.19-3.7,15.63-.03,22.77,4.45,8.64,14.73,20.42,38.25,32.19,2.38,1.19,5.2,1.19,7.58,0,23.52-11.78,33.8-23.55,38.25-32.19,3.67-7.14,3.54-15.57-.03-22.77h0Z" style="fill:#24a656;"/><path d="M250,148.62c-9.98-3.57-25.92-7.71-25.92-7.71l3.38,2.6s15.62,6.7,22.53,13.41c6.92-6.71,22.53-13.41,22.53-13.41l2.24-2.2c-9.09,2.3-24.77,7.31-24.77,7.31h0Z" style="fill:#24a656;"/><path d="M308.33,152.84c-11.64,2.27-22.09,6.61-26.02,8.37,1.2,.2,4.23,.81,6.79,2.14,0,0-11.18-2.39-19.94,7.54-1.09,1.23-1.96,2.65-2.5,4.2-.26,.74-.47,1.57-.5,2.38-.13,2.72,2.87,4.49,5.26,3.2,2.73-1.48,8.42-5.09,18.59-13.62,0,0,14.96-3.55,20.6,8.24,1.69,1.2,2.54,2.05,2.54,2.05,6.15-18.55-4.81-24.51-4.81-24.51h0Z" style="fill:#24a656;"/><path d="M327.08,124.76c1.71,1.13,3.49,2.48,5.25,4.07l.26-3.68c-1.63-1.21-3.48-2.4-5.52-3.46v3.07h0Z" style="fill:#24a656;"/><path d="M327.21,129.55c-2.59-1.79-5.95-3.62-9.93-4.61l.5,4.27s-3.26-3.41-8.6-5.78c0,0-18.31,7.41-39.43,39.21,0,0,8.3-4.3,14.01-7.04,0,0,5.48-8.45,15.79-14.31l-3.85-2.22s13.12-1.93,23.57,9.12c0,0,1.04-6-3.11-11.86,0,0,25.52,12.09,14.82,49.93,1.59-2.31,3.16-5.04,4.51-8.23,5.05-11.94,4.56-25.41-.98-37.13-1.75-3.71-4.12-7.65-7.28-11.34h0Z" style="fill:#24a656;"/><path d="M337.04,128.9c-.62-.6-1.3-1.22-2.05-1.85l-.29,4.09c3.06,3.22,5.98,7.27,8.36,12.37,0,0-1.18-5.5-6.02-14.61h0Z" style="fill:#24a656;"/><path d="M314.09,119.11s4.3,.75,9.88,3.78v-2.65c-3.61-1.46-7.71-2.41-12.23-2.38l2.35,1.25h0Z" style="fill:#24a656;"/><path d="M190.82,123.42c-5.34,2.37-8.6,5.78-8.6,5.78l.5-4.27c-3.97,.99-7.34,2.82-9.92,4.61-3.16,3.7-5.53,7.64-7.28,11.34-5.55,11.72-6.04,25.19-.99,37.13,1.35,3.19,2.93,5.93,4.51,8.23-10.7-37.85,14.82-49.93,14.82-49.93-4.15,5.86-3.11,11.86-3.11,11.86,10.45-11.04,23.57-9.12,23.57-9.12l-3.85,2.22c10.3,5.86,15.79,14.31,15.79,14.31,5.71,2.74,14.01,7.04,14.01,7.04-21.12-31.8-39.43-39.21-39.43-39.21h0Z" style="fill:#24a656;"/><path d="M172.92,121.68c-2.04,1.06-3.88,2.25-5.52,3.46l.26,3.68c1.76-1.59,3.54-2.94,5.26-4.07v-3.07h0Z" style="fill:#24a656;"/><path d="M165.29,131.14l-.29-4.09c-.74,.63-1.43,1.25-2.04,1.85-4.84,9.11-6.02,14.61-6.02,14.61,2.38-5.09,5.3-9.14,8.36-12.37h0Z" style="fill:#24a656;"/><path d="M176.04,120.24v2.65c5.57-3.03,9.88-3.78,9.88-3.78l2.35-1.25c-4.52-.04-8.62,.92-12.23,2.38h0Z" style="fill:#24a656;"/><path d="M233.35,175.1c-.54-1.55-1.42-2.97-2.5-4.2-8.76-9.93-19.94-7.54-19.94-7.54,2.55-1.33,5.58-1.94,6.79-2.14-3.93-1.75-14.38-6.1-26.02-8.37,0,0-10.96,5.96-4.81,24.51,0,0,.84-.85,2.54-2.05,5.63-11.79,20.6-8.24,20.6-8.24,10.17,8.53,15.85,12.14,18.59,13.62,2.39,1.29,5.4-.48,5.26-3.2-.04-.81-.24-1.64-.5-2.38h0Z" style="fill:#24a656;"/><path d="M330.66,430.94c9.59,1.07,16.93,.26,21.61-.68-10.43-3.94-18.21-12.94-20.85-23.96-4.43-18.48-1.81-41.62-1.81-41.62,.36-11.37,.59-17.03,1.09-24.34,1.73-25.67-.78-42.59-3.38-52.6-2.08-8.02-6.49-15.22-12.6-20.81-4.56-4.17-9.24-7.43-12.98-9.74-14.76-6.55-27.25-7.31-27.25-7.31,6.4-2.54,9.76-4.85,11.53-6.57,1.34-1.31,1.89-3.21,1.52-5.05-.67-3.29-1.41-8.37-1.41-8.37-15.86,3.09-26.99-2.06-26.99-2.06,12.15-1.75,19.88-10.25,19.88-10.25-1.75,.26-4.15,0-4.15,0,0,0-5.22,2.11-9.45-.98-1.45-1.06-2.49-2.62-3-4.35-.84-2.8-3.72-9.46-12.41-9.46s-11.57,6.66-12.41,9.46c-.52,1.73-1.55,3.29-3.01,4.35-4.23,3.09-9.45,.98-9.45,.98-.86,.11-3.29,.13-4.15,0,0,0,7.73,8.5,19.88,10.25,0,0-11.13,5.15-26.99,2.06,0,0-.74,5.08-1.41,8.37-.37,1.84,.19,3.75,1.53,5.06,1.77,1.72,5.14,4.03,11.52,6.56,0,0-12.49,.76-27.25,7.31-3.74,2.31-8.42,5.57-12.98,9.74-6.11,5.59-10.52,12.8-12.6,20.81-2.6,10.01-5.11,26.93-3.38,52.6,.49,7.31,.73,12.97,1.09,24.34,0,0,2.62,23.14-1.81,41.62-2.64,11.02-10.43,20.03-20.85,23.96,4.68,.94,12.02,1.75,21.61,.68,0,0-12,7.1-37.55,4.64,0,0,3.87,4.47,16.69,6.36,6.93,1.02,14.06-.39,19.98-4.12,7.25-4.57,16.2-13.29,21.79-29.79,0,0-4.26,3.43-9.42,5.49,0,0,1.56-2.69,3.76-7.49,5.77-12.56,9.6-25.92,11.54-39.6,.15-1.03,.3-2.11,.45-3.22,1.38,.76,3.27,1.79,4.89,2.69,.18-2.26,.41-4.67,.69-7.18-1.59-.87-3.35-1.84-4.63-2.54,.97-7.36,1.96-15.46,2.6-22.47,1.5,1.27,3.62,3.13,5.41,4.9,.55-2.37,1.16-4.74,1.84-7.1-2.14-2.11-4.77-4.38-6.25-5.62,2.23-13.66,9.27-43.05,29.74-57.93,11.61-8.44,27.12-8.43,38.71,.04,20.33,14.87,27.17,44.19,29.32,57.85-1.47,1.23-4.13,3.53-6.3,5.66,.68,2.36,1.29,4.73,1.84,7.1,1.79-1.76,3.92-3.62,5.42-4.9,.65,7.01,1.63,15.11,2.6,22.47-1.28,.7-3.04,1.67-4.63,2.54,.28,2.51,.51,4.91,.69,7.18,1.62-.9,3.51-1.93,4.89-2.69,.15,1.11,.31,2.19,.45,3.22,1.94,13.68,5.77,27.04,11.54,39.6,2.2,4.8,3.76,7.49,3.76,7.49-5.16-2.06-9.42-5.49-9.42-5.49,5.58,16.5,14.54,25.22,21.78,29.79,5.93,3.74,13.05,5.14,19.98,4.12,12.82-1.88,16.69-6.36,16.69-6.36-25.55,2.45-37.55-4.64-37.55-4.64h0Z" style="fill:#24a656;"/><path d="M193.32,183.92c-3.02,3.78-8.26,12.87,.01,23.59,1.7,2.2,5.09,2.44,6.8,.25,.12-.15,.23-.33,.34-.51-7.37-8.26-7.73-17.88-7.15-23.33h0Z" style="fill:#24a656;"/><path d="M299.54,207.25c.11,.18,.22,.36,.34,.51,1.72,2.19,5.1,1.96,6.8-.25,8.28-10.72,3.04-19.82,.01-23.59,.57,5.45,.22,15.07-7.15,23.33h0Z" style="fill:#24a656;"/><path d="M95.37,422.43c-5.59-17.08,.53-25.33,.53-25.33,0,0,4.88-11.48,15.06-9.14,1.71,.39,3.27,1.17,4.64,2.19,2.99,1.39,5.71,3.74,7.19,5.15,1.53,1.46,3.27,2.68,5.23,3.48,1.61,.66,3.06,.96,4.29,1.07,.27-.78,.37-1.6,.36-2.43-.03-2.2-.61-6.56-4.16-10.62-4.16-4.76-10.54-6.91-16.83-6.21-6.2,.69-14.45,3.67-18.62,13.92-1.52,3.75-2.12,7.83-1.88,11.87,.24,4.08,1.21,9.85,4.18,16.04h0Z" style="fill:#24a656;"/><path d="M106.86,421.56c-1.63-1.58-3.02-3.37-4.13-5.33,1.42,11.36,8.1,21.41,12.81,27.24,5.03,2.92,10.46,5.08,16.12,6.41-17.12-8.85-22.94-22.03-24.81-28.33h0Z" style="fill:#24a656;"/><path d="M397.27,416.23c-1.1,1.95-2.5,3.75-4.12,5.33-1.87,6.29-7.69,19.47-24.81,28.33,5.66-1.33,11.09-3.49,16.12-6.41,4.71-5.84,11.4-15.88,12.81-27.24h0Z" style="fill:#24a656;"/><path d="M388.32,380.6c-6.28-.7-12.66,1.45-16.83,6.21-3.55,4.06-4.13,8.42-4.16,10.62-.01,.82,.09,1.65,.36,2.43,1.23-.11,2.68-.41,4.29-1.07,1.95-.8,3.7-2.02,5.23-3.48,1.48-1.41,4.2-3.76,7.19-5.15,1.37-1.03,2.93-1.8,4.64-2.19,10.19-2.35,15.06,9.14,15.06,9.14,0,0,6.13,8.25,.54,25.33,2.98-6.19,3.94-11.95,4.18-16.04,.24-4.04-.36-8.12-1.88-11.87-4.17-10.25-12.42-13.22-18.62-13.92h0Z" style="fill:#24a656;"/><path d="M189.52,219.48c-.77-.62-1.69-1.03-2.66-1.22-6.38-1.27-11.66-3.06-11.66-3.06l7.07,3.59s.62,2.42,2.71,3.57c.84,.46,1.87,.54,2.66,0,.45-.3,.86-.82,1.03-1.68l2.19,.06c-.48-.51-.93-.93-1.34-1.25h0Z" style="fill:#e9ffbf;"/><path d="M145.06,29.71c-.97,2.26,.52,4.61,1.73,6.02,.68,.8,1.48,1.51,2.37,2.06,2.68,1.67,4.4,1.07,5.2,.55,2.78,4.15,4.31,9.28,3.55,15.63l2.19-1.15c.19-5.64-1.3-12.32-6.99-18.66-3.31-3.7-7.49-6.54-12.09-8.39-3.35-1.34-7.85-2.66-12.86-2.86,4.47,1.09,11.04,3.16,16.89,6.8h0Z" style="fill:#e9ffbf;"/><path d="M157.17,60.49l-.02,.21s-.85,4.35-2.36,8.07c.02-.03,.04-.06,.06-.09,1.99-2.95,3.49-6.21,4.37-9.64-.6,.44-1.38,.99-2.04,1.45h0Z" style="fill:#e9ffbf;"/><path d="M140.91,138.42c-2.43-3.88-4.99-9.39-5.9-16.26-.4,.28-.86,.6-1.27,.89,.29,1.93,.75,3.83,1.38,5.69,2.98,8.83,7.52,14.77,7.52,14.77l-1.74-5.09h0Z" style="fill:#e9ffbf;"/><path d="M136.03,103.01l1.4-.05c.79-2.37,1.82-5.15,3.12-8.24h0c-1.98,2.47-3.45,5.34-4.52,8.3h0Z" style="fill:#e9ffbf;"/><path d="M135.6,109.24c.09-.38,.2-.79,.31-1.23l-1.37,.05c-.66,2.91-.98,5.7-1.11,8.09,.37-.27,.84-.59,1.27-.89,.09-2.03,.41-4.05,.89-6.02h0Z" style="fill:#e9ffbf;"/><path d="M162.92,209.99c-3.25-.86-7.03-1.94-10.24-3.09,0,0-17.44,8.64-38.3,11.88,24.11-.11,38.17-9.16,38.17-9.16,5.07,1.63,8.74,.89,10.37,.37h0Z" style="fill:#e9ffbf;"/><path d="M52.29,198.52l-1.67,.24c.84,2.73,1.96,5.52,3.43,8.34h0c-1.35-.29-3.86-.39-4.52,2.57-.27,1.19-.11,2.45,.35,3.58,.8,1.97,2.8,5.02,7.74,6.54,2.22,.68,4.51-.72,4.98-2.87,5.68,4.83,14.64,10.37,28.17,13.94,0,0-8.59-3.56-15.39-9.16-12.46-4.83-19.52-13.78-23.11-23.19h0Z" style="fill:#e9ffbf;"/><path d="M50.72,193.59c-1.54-5.93-1.86-11.78-1.43-16.64,.13-1.44,.33-2.82,.56-4.18-1.24,5.36-2.06,12.75-.46,21.01l1.33-.19h0Z" style="fill:#e9ffbf;"/><path d="M117.5,269.68c-16.05,3.59-27.48,10.43-35.21,16.87l2.32,.96c3.5-3.12,7.51-5.65,11.85-7.5,.98-.41,1.9-.79,2.77-1.14,.7,1.82,2.36,3.16,4.33,3.46,10.24,1.56,16.05-1.63,18.74-3.86,1.94-1.61,1.79-4.78-.41-6.02-.93-.52-2.02-.78-3.04-.89l13.1-5.53c-7.52,2.02-14.44,3.66-14.44,3.66h0Z" style="fill:#e9ffbf;"/><path d="M64.77,345.23c-.56-11.38,.81-21.03,3.14-29.08l-3.61-1c-1.59,7.35-1.71,14.17-1.38,19.35,.24,3.63,.87,7.23,1.84,10.73h0Z" style="fill:#e9ffbf;"/><path d="M70.78,308.05c2.25-5.35,4.86-9.76,7.38-13.28l-3.08-1.27c-3.4,3.87-6.13,8.25-8.1,12.99l3.8,1.57h0Z" style="fill:#e9ffbf;"/><path d="M355.36,29.71c.96,2.26-.52,4.61-1.73,6.02-.68,.8-1.48,1.51-2.37,2.06-2.68,1.67-4.4,1.07-5.2,.55-2.78,4.15-4.31,9.28-3.55,15.63l-2.19-1.15c-.19-5.64,1.3-12.32,6.99-18.66,3.31-3.7,7.49-6.54,12.09-8.39,3.35-1.34,7.85-2.66,12.86-2.86-4.47,1.09-11.04,3.16-16.89,6.8h0Z" style="fill:#e9ffbf;"/><path d="M343.25,60.49l.02,.21s.85,4.35,2.36,8.07c-.02-.03-.04-.06-.06-.09-1.99-2.95-3.49-6.21-4.37-9.64,.6,.44,1.38,.99,2.04,1.45h0Z" style="fill:#e9ffbf;"/><path d="M359.51,138.42c2.43-3.88,4.99-9.39,5.9-16.26,.4,.28,.86,.6,1.27,.89-.29,1.93-.75,3.83-1.38,5.69-2.98,8.83-7.52,14.77-7.52,14.77l1.74-5.09h0Z" style="fill:#e9ffbf;"/><path d="M364.4,103.01l-1.4-.05c-.79-2.37-1.82-5.15-3.12-8.25h0c1.98,2.47,3.44,5.35,4.52,8.3h0Z" style="fill:#e9ffbf;"/><path d="M364.82,109.24c-.09-.38-.2-.79-.31-1.23l1.37,.05c.66,2.91,.98,5.7,1.11,8.09-.37-.27-.84-.59-1.27-.89-.09-2.03-.41-4.05-.89-6.02h0Z" style="fill:#e9ffbf;"/><path d="M337.5,209.99c3.25-.86,7.03-1.94,10.24-3.09,0,0,17.44,8.64,38.3,11.88-24.11-.11-38.17-9.16-38.17-9.16-5.07,1.63-8.74,.89-10.37,.37h0Z" style="fill:#e9ffbf;"/><path d="M448.13,198.52l1.67,.24c-.84,2.73-1.96,5.52-3.43,8.34h0c1.35-.29,3.86-.39,4.52,2.57,.27,1.2,.11,2.45-.35,3.58-.8,1.97-2.81,5.02-7.75,6.54-2.22,.68-4.51-.72-4.98-2.87-5.68,4.83-14.64,10.37-28.17,13.94,0,0,8.59-3.56,15.38-9.16,12.46-4.83,19.52-13.78,23.11-23.19h0Z" style="fill:#e9ffbf;"/><path d="M449.7,193.59c1.54-5.93,1.86-11.78,1.43-16.64-.13-1.44-.32-2.82-.55-4.18,1.24,5.36,2.06,12.75,.46,21.01l-1.33-.19h0Z" style="fill:#e9ffbf;"/><path d="M382.92,269.68c16.05,3.59,27.48,10.43,35.21,16.87l-2.32,.96c-3.5-3.12-7.51-5.65-11.86-7.5-.97-.41-1.9-.79-2.77-1.14-.7,1.82-2.36,3.16-4.33,3.46-10.24,1.56-16.05-1.63-18.74-3.86-1.95-1.61-1.79-4.78,.41-6.02,.93-.52,2.02-.78,3.04-.89l-13.1-5.53c7.52,2.02,14.44,3.66,14.44,3.66h0Z" style="fill:#e9ffbf;"/><path d="M435.65,345.23c.56-11.38-.81-21.03-3.14-29.08l3.61-1c1.59,7.35,1.71,14.17,1.38,19.35-.24,3.63-.87,7.23-1.84,10.73h0Z" style="fill:#e9ffbf;"/><path d="M429.64,308.05c-2.25-5.35-4.86-9.76-7.38-13.28l3.08-1.27c3.39,3.87,6.13,8.25,8.1,12.99l-3.8,1.57h0Z" style="fill:#e9ffbf;"/><path d="M224.08,140.91s15.94,6.73,25.92,10.3c0,0,15.72-6.21,24.77-9.91-9.09,2.3-24.77,7.31-24.77,7.31-9.98-3.57-25.92-7.71-25.92-7.71h0Z" style="fill:#e9ffbf;"/><path d="M308.33,152.84c-2.04,.4-4.04,.86-5.98,1.36,1.22-.02,2.77-.02,4,.05,0,0-2.35,1.34-2.82,3.74-.3,1.54,.71,3.01,2.23,3.41,1.42,.37,3.4,.34,5.33-1.53,0,0,3.64,5.93,2.04,17.49,6.15-18.55-4.81-24.51-4.81-24.51h0Z" style="fill:#e9ffbf;"/><path d="M170.93,116.01c8.15-8.87,25.66-25.95,47.17-35.29,0,0,2.07,10.32,16.03,16.48,10.08,4.44,21.66,4.44,31.73,0,13.96-6.16,16.03-16.48,16.03-16.48,21.52,9.34,39.03,26.42,47.18,35.29-2.89-4.12-6.35-8.58-10.49-13.31-9.91-11.31-22.02-20.55-35.83-26.5-9.31-4.01-20.57-7.58-32.75-7.42-12.19-.16-23.44,3.41-32.75,7.42-13.8,5.95-25.92,15.19-35.83,26.5-4.15,4.73-7.6,9.19-10.49,13.31h0Z" style="fill:#e9ffbf;"/><path d="M197.66,154.2c-1.94-.5-3.94-.96-5.98-1.36,0,0-10.96,5.96-4.81,24.51-1.61-11.56,2.04-17.49,2.04-17.49,1.93,1.87,3.92,1.9,5.33,1.53,1.52-.39,2.53-1.86,2.23-3.41-.46-2.4-2.82-3.74-2.82-3.74,1.23-.06,2.78-.06,4-.05h0Z" style="fill:#e9ffbf;"/><path d="M193.36,191.29c-.78-6.66,.74-11.74,.74-11.74,0,0-.88,.5-2.15,1.65-.38,2.01-.81,5.68-.04,10.09h1.46Z" style="fill:#e9ffbf;"/><path d="M194.09,195.3l-1.06,.37c.5,1.46,1.15,2.95,1.99,4.46,0,0-2.67,2.01-.75,5.23,.6,1.01,1.6,1.75,2.76,1.95,.86,.14,1.88,.02,2.75-.86-3.02-3.64-4.75-7.51-5.68-11.14h0Z" style="fill:#e9ffbf;"/><path d="M306.65,191.29h1.46c.77-4.41,.34-8.09-.04-10.09-1.27-1.15-2.15-1.65-2.15-1.65,0,0,1.53,5.08,.74,11.74h0Z" style="fill:#e9ffbf;"/><path d="M302.98,207.3c1.15-.19,2.16-.94,2.76-1.95,1.92-3.22-.75-5.23-.75-5.23,.84-1.51,1.48-3,1.99-4.46l-1.06-.37c-.93,3.63-2.66,7.5-5.68,11.14,.86,.88,1.89,1.01,2.75,.86h0Z" style="fill:#e9ffbf;"/><path d="M327.19,340.6l-.04,.88,3.25,3.5c.09-1.52,.18-3.04,.29-4.65,.21-3.16,.36-6.19,.45-9.09l-3.22-3.47c-.15,3.89-.39,8.18-.73,12.83h0Z" style="fill:#e9ffbf;"/><path d="M327.92,303.85s.38,5.7,.23,15.59l3.11,3.34c-.09-16.11-1.99-27.53-3.95-35.05-2.08-8.02-6.49-15.22-12.6-20.81-4.29-3.92-8.68-7.03-12.3-9.31l-3.27-.7s14.17,7.19,20.92,19.49c0,0-8.5-3.18-5.99,12.31,.66,4.06,2.16,7.98,4.67,11.24,2.29,2.97,5.49,5.53,9.16,3.91h0Z" style="fill:#e9ffbf;"/><path d="M326.39,358.14c-.43,9.62-.1,19.26,1.16,28.81,.65,4.87,1.57,9.97,2.87,14.51-3.01-17.44-.82-36.78-.82-36.78,.15-4.63,.27-8.31,.4-11.54l-3.23-3.48c-.12,2.63-.25,5.57-.38,8.49h0Z" style="fill:#e9ffbf;"/><path d="M172.45,386.94c1.27-9.54,1.59-19.19,1.16-28.81-.13-2.92-.26-5.86-.38-8.49l-3.23,3.48c.13,3.23,.26,6.91,.4,11.54,0,0,2.19,19.34-.82,36.78,1.3-4.54,2.22-9.64,2.87-14.51h0Z" style="fill:#e9ffbf;"/><path d="M200.86,256.9l-3.27,.7c-3.62,2.28-8.01,5.39-12.29,9.31-6.11,5.59-10.52,12.8-12.6,20.81-1.95,7.52-3.86,18.95-3.95,35.05l3.11-3.34c-.14-9.89,.23-15.59,.23-15.59,3.67,1.62,6.88-.94,9.16-3.91,2.51-3.26,4.01-7.18,4.67-11.24,2.51-15.49-5.99-12.31-5.99-12.31,6.76-12.31,20.93-19.49,20.93-19.49h0Z" style="fill:#e9ffbf;"/><path d="M172.08,327.77l-3.22,3.47c.09,2.9,.24,5.93,.45,9.09,.11,1.6,.2,3.12,.29,4.65l3.25-3.5c-.03-.57-.04-.88-.04-.88-.35-4.65-.58-8.94-.73-12.83h0Z" style="fill:#e9ffbf;"/><path d="M256.05,208.09c.87,.53,1.79,1.17,2.73,1.96,1.5,1.26,2.8,2.15,3.86,2.77-.07-.2-.17-.39-.23-.59-.84-2.8-3.72-9.46-12.41-9.46s-11.57,6.66-12.41,9.46c-.06,.2-.15,.39-.23,.59,1.05-.62,2.36-1.51,3.86-2.77,.95-.79,1.87-1.44,2.73-1.96,3.72-2.26,8.37-2.26,12.1,0h0Z" style="fill:#e9ffbf;"/><path d="M310.91,219.48c-.4,.32-.86,.74-1.33,1.24l2.04-.09v.06c.21,1.15,1.35,1.94,2.5,1.74,3.38-.6,3.73-3.89,3.73-3.89l7.37-3.34s-5.28,1.79-11.66,3.06c-.97,.19-1.88,.6-2.65,1.22h0Z" style="fill:#e9ffbf;"/></svg>