<svg width="66" height="47" viewBox="0 0 66 47" fill="none" xmlns="http://www.w3.org/2000/svg">
<path d="M0 36.0518V38.6475H65.8V36.8129C65.8 34.0974 65.6149 31.5178 65.2521 29.0683H0.48549C0.170455 31.2525 0 33.576 0 36.0518Z" fill="url(#paint0_linear_1201_383)"/>
<path d="M10.2742 8.71495C8.42727 10.5914 6.72997 12.7352 5.26953 15.1824H60.4376C59.3174 13.3315 58.0267 11.6054 56.5552 10.0118C55.0749 8.40897 53.4765 7.00384 51.766 5.78589H13.5468C12.4044 6.67591 11.3193 7.65305 10.2742 8.71495Z" fill="url(#paint1_linear_1201_383)"/>
<path d="M65.8 40.8922H0V46.9999H65.8V40.8922Z" fill="url(#paint2_linear_1201_383)"/>
<path d="M4.04143 17.4269C2.65835 20.1959 1.56921 23.3156 0.871094 26.8234H64.8633C64.1785 23.4141 63.1123 20.2844 61.6746 17.4269H4.04143Z" fill="url(#paint3_linear_1201_383)"/>
<path d="M48.0485 3.54103C43.425 1.18683 38.1033 0 32.0715 0C25.7612 0 20.9339 1.27562 16.9023 3.54103H48.0485Z" fill="url(#paint4_linear_1201_383)"/>
<path d="M23.8454 24.9815H21.1206C20.6723 24.9834 20.0777 25.2833 20.0781 26.0991C20.0784 26.8361 20.0781 29.5019 20.0781 32.5326C20.1684 33.2542 20.2903 33.4318 20.7705 33.7902C21.2272 34.1311 21.6059 34.1483 22.0914 34.1483C22.4942 34.1483 25.3587 34.1483 26.2223 34.1316C25.7282 34.1412 27.0203 34.0699 27.4321 34.3926C28.1483 34.9537 28.0702 36.1798 28.0689 37.7116C28.0659 40.8404 28.0582 44.8171 28.0689 46.9823C30.7147 46.9823 36.8522 47 36.8522 47C36.8522 47 36.8522 37.5762 36.8522 32.0029C36.8522 32.0029 36.8522 29.9271 38.5076 29.9154C40.2055 29.9036 43.0948 29.885 43.0948 29.885C43.0948 29.885 44.8781 29.9738 44.8781 28.0198C44.8781 26.0657 44.8357 19.6706 44.8357 19.6706C44.8357 19.6706 44.8839 18.5162 43.5249 18.5162C41.6571 18.5162 43.4382 18.5162 41.6944 18.5162C41.6944 18.5162 40.3054 18.4245 40.3054 19.6012C40.3054 20.7123 40.3054 24.3557 40.3054 24.3557C40.3054 24.3557 40.238 25.3662 39.3069 25.3662C38.3562 25.3662 37.5621 25.3662 37.6672 25.3662C37.6672 25.3662 36.8204 25.3592 36.8204 24.3812C36.8204 23.4117 36.8132 14.031 36.8132 14.031C36.8132 14.031 36.8663 12.6981 35.5503 12.6983C33.5285 12.6983 28.4666 12.6983 29.5649 12.6983C29.5649 12.6983 28.068 12.582 28.0689 14.0327C28.053 15.3855 28.0787 28.7275 28.0689 28.6859C28.0689 28.6859 28.0691 29.885 27.3039 29.885C26.5617 29.885 25.7441 29.885 25.7441 29.885C25.7441 29.885 24.7813 29.976 24.7579 28.5079C24.7535 28.2301 24.7579 26.0935 24.7579 26.0935C24.7581 25.2833 24.2698 25.0001 23.8454 24.9815Z" fill="#0D1A4E"/>
<defs>
<linearGradient id="paint0_linear_1201_383" x1="29.778" y1="16.7453" x2="33.7855" y2="40.1204" gradientUnits="userSpaceOnUse">
<stop stop-color="#3D84E6"/>
<stop offset="1" stop-color="#1254CB"/>
</linearGradient>
<linearGradient id="paint1_linear_1201_383" x1="33.0212" y1="16.1895" x2="37.0286" y2="39.5647" gradientUnits="userSpaceOnUse">
<stop stop-color="#3D84E6"/>
<stop offset="1" stop-color="#1254CB"/>
</linearGradient>
<linearGradient id="paint2_linear_1201_383" x1="28.4119" y1="16.9795" x2="32.4194" y2="40.3546" gradientUnits="userSpaceOnUse">
<stop stop-color="#3D84E6"/>
<stop offset="1" stop-color="#1254CB"/>
</linearGradient>
<linearGradient id="paint3_linear_1201_383" x1="31.1507" y1="16.5101" x2="35.1581" y2="39.8852" gradientUnits="userSpaceOnUse">
<stop stop-color="#3D84E6"/>
<stop offset="1" stop-color="#1254CB"/>
</linearGradient>
<linearGradient id="paint4_linear_1201_383" x1="34.5372" y1="15.929" x2="38.5447" y2="39.3041" gradientUnits="userSpaceOnUse">
<stop stop-color="#3D84E6"/>
<stop offset="1" stop-color="#1254CB"/>
</linearGradient>
</defs>
</svg>
