<svg width="64" height="70" viewBox="0 0 64 70" fill="none" xmlns="http://www.w3.org/2000/svg">
<g clip-path="url(#clip0_3825_5333)">
<path d="M41.1981 43.3002C37.7757 44.0719 34.1395 43.1567 29.9863 40.4829C34.4781 39.855 38.061 40.8779 41.1981 43.3002Z" fill="url(#paint0_radial_3825_5333)"/>
<path d="M47.1516 40.1957L42.731 44.646L24.6745 62.8239L22.8384 64.6722C17.9723 69.571 10.1115 69.571 5.24535 64.6722C0.379154 59.7733 0.379154 51.8597 5.24535 46.9609L11.9653 40.1957C12.6248 39.801 13.2665 39.4421 13.9261 39.137C14.3182 38.9576 14.6925 38.7781 15.0668 38.6167C19.8618 36.6248 24.4605 36.894 29.5584 40.1957C29.701 40.2854 29.8437 40.3931 29.9863 40.483C34.1395 43.1745 37.7757 44.0717 41.1981 43.3002C43.2301 42.8517 45.1908 41.8107 47.1516 40.1957Z" fill="url(#paint1_radial_3825_5333)"/>
<path opacity="0.35" d="M51.9822 35.3509L22.8384 64.6723C17.9723 69.5712 10.1115 69.5712 5.24535 64.6723C0.379154 59.7734 0.379154 51.8599 5.24535 46.961L11.9653 40.1959L34.389 17.6396L51.9822 35.3509Z" fill="url(#paint2_linear_3825_5333)"/>
<path d="M14.0326 69.9659C10.2894 69.9659 6.76008 68.4944 4.10418 65.8207C-1.36806 60.3116 -1.36806 51.3394 4.10418 45.8304L34.3887 15.3606L54.2454 35.3508L23.979 65.8207C21.3231 68.4944 17.7937 69.9659 14.0326 69.9659ZM34.3887 19.9185L6.38577 48.1094C2.16127 52.3623 2.16127 59.2889 6.38577 63.5417C8.43561 65.6053 11.145 66.7359 14.0505 66.7359C16.9381 66.7359 19.6653 65.6053 21.7152 63.5417L49.718 35.3508L34.3887 19.9185Z" fill="white"/>
<path opacity="0.46" d="M53.2826 36.6606L33.0691 16.3115C31.5004 14.7324 31.5004 12.1663 33.0691 10.5872C34.6377 9.00805 37.1866 9.00805 38.7553 10.5872L58.9686 30.9364C60.5372 32.5154 60.5372 35.0814 58.9686 36.6606C57.3999 38.2398 54.851 38.2398 53.2826 36.6606Z" fill="url(#paint3_linear_3825_5333)"/>
<path d="M56.1351 39.46C54.6378 39.46 53.2296 38.8679 52.1601 37.8092L31.9289 17.4601C30.8593 16.3834 30.2891 14.9658 30.2891 13.4585C30.2891 11.9511 30.8772 10.5335 31.9289 9.45681C32.9985 8.38015 34.4065 7.80591 35.9039 7.80591C37.4012 7.80591 38.8094 8.39809 39.8787 9.45681L60.1099 29.806C62.3025 32.0131 62.3025 35.602 60.1099 37.8092C59.0406 38.8859 57.6324 39.46 56.1351 39.46ZM35.9039 11.018C35.2621 11.018 34.656 11.2692 34.1927 11.7358C33.7292 12.2023 33.4797 12.8124 33.4797 13.4585C33.4797 14.1045 33.7292 14.7146 34.1927 15.1811L54.406 35.5302C54.8695 35.9968 55.4756 36.248 56.1172 36.248C56.7589 36.248 57.3649 35.9968 57.8284 35.5302C58.7731 34.5791 58.7731 33.036 57.8284 32.1028L37.6149 11.7358C37.1516 11.2692 36.5456 11.018 35.9039 11.018Z" fill="white"/>
<path d="M58.7378 19.5058C61.2087 19.5058 63.2117 17.4892 63.2117 15.0016C63.2117 12.5141 61.2087 10.4976 58.7378 10.4976C56.2669 10.4976 54.2637 12.5141 54.2637 15.0016C54.2637 17.4892 56.2669 19.5058 58.7378 19.5058Z" fill="url(#paint4_radial_3825_5333)"/>
<path d="M58.738 20.2235C55.8682 20.2235 53.5332 17.8728 53.5332 14.9837C53.5332 12.0946 55.8682 9.7439 58.738 9.7439C61.6077 9.7439 63.9429 12.0946 63.9429 14.9837C63.9429 17.8728 61.6077 20.2235 58.738 20.2235ZM58.738 11.2333C56.6703 11.2333 54.9947 12.9201 54.9947 15.0017C54.9947 17.0832 56.6703 18.77 58.738 18.77C60.8056 18.77 62.4812 17.0832 62.4812 15.0017C62.4812 12.9201 60.8056 11.2333 58.738 11.2333Z" fill="white"/>
<path d="M50.8595 8.48785C52.4248 8.48785 53.6935 7.21045 53.6935 5.63467C53.6935 4.05891 52.4248 2.78149 50.8595 2.78149C49.2941 2.78149 48.0254 4.05891 48.0254 5.63467C48.0254 7.21045 49.2941 8.48785 50.8595 8.48785Z" fill="url(#paint5_radial_3825_5333)"/>
<path d="M50.858 9.22348C48.8972 9.22348 47.293 7.60846 47.293 5.63456C47.293 3.66067 48.8972 2.04565 50.858 2.04565C52.8187 2.04565 54.423 3.66067 54.423 5.63456C54.4409 7.60846 52.8366 9.22348 50.858 9.22348ZM50.858 3.49917C49.6993 3.49917 48.7546 4.45022 48.7546 5.61662C48.7546 6.78302 49.6993 7.73407 50.858 7.73407C52.0166 7.73407 52.9613 6.78302 52.9613 5.61662C52.9613 4.45022 52.0345 3.49917 50.858 3.49917Z" fill="white"/>
<path d="M60.7525 4.80914C61.8649 4.80914 62.7668 3.90129 62.7668 2.7814C62.7668 1.66151 61.8649 0.753662 60.7525 0.753662C59.64 0.753662 58.7383 1.66151 58.7383 2.7814C58.7383 3.90129 59.64 4.80914 60.7525 4.80914Z" fill="url(#paint6_radial_3825_5333)"/>
<path d="M60.7508 5.52692C59.2357 5.52692 58.0059 4.28875 58.0059 2.76346C58.0059 1.23817 59.2357 0 60.7508 0C62.266 0 63.4958 1.23817 63.4958 2.76346C63.4958 4.28875 62.266 5.52692 60.7508 5.52692ZM60.7508 1.4894C60.0378 1.4894 59.4673 2.06363 59.4673 2.78141C59.4673 3.49918 60.0378 4.07341 60.7508 4.07341C61.4639 4.07341 62.0342 3.49918 62.0342 2.78141C62.0342 2.06363 61.4639 1.4894 60.7508 1.4894Z" fill="white"/>
<path opacity="0.6" d="M6.54597 52.3979C6.4925 53.385 6.4925 54.2642 6.54597 55.1075C6.59943 55.9511 6.70639 56.7586 6.86681 57.5661C7.02724 58.3736 7.25897 59.1631 7.52633 59.9886C7.79371 60.8139 8.11456 61.6574 8.38192 62.6263C7.47286 62.1957 6.74204 61.5137 6.15381 60.7242C5.5656 59.9347 5.15562 58.9837 4.94172 57.9788C4.74565 56.9738 4.76348 55.933 5.01303 54.9462C5.1378 54.4616 5.33388 53.9951 5.58342 53.5464C5.8508 53.0978 6.136 52.703 6.54597 52.3979Z" fill="url(#paint7_linear_3825_5333)"/>
<path opacity="0.56" d="M56.3846 13.4583C56.3667 13.871 56.3667 14.2119 56.3846 14.5708C56.4023 14.9118 56.4558 15.2527 56.5093 15.5757C56.5807 15.8987 56.6697 16.2217 56.7767 16.5627C56.8837 16.9036 57.0084 17.2445 57.1332 17.6393C56.7588 17.4599 56.4737 17.1907 56.2241 16.8677C55.9746 16.5447 55.8141 16.1499 55.725 15.7552C55.636 15.3424 55.6537 14.9118 55.7606 14.517C55.8141 14.3196 55.8855 14.1222 55.9925 13.9428C56.0816 13.7633 56.2062 13.5839 56.3846 13.4583Z" fill="url(#paint8_linear_3825_5333)"/>
<path opacity="0.56" d="M49.6111 4.28882C49.5932 4.57593 49.5932 4.84509 49.6111 5.09631C49.629 5.34755 49.6646 5.58081 49.7002 5.83205C49.7537 6.06531 49.8072 6.2986 49.8963 6.54982C49.9677 6.80104 50.0746 7.05228 50.1458 7.33939C49.8786 7.21378 49.6646 7.01639 49.4863 6.76517C49.3081 6.53188 49.1834 6.24477 49.1299 5.95766C49.0765 5.65259 49.0764 5.34755 49.1476 5.06043C49.1834 4.91687 49.2367 4.77332 49.326 4.64769C49.3972 4.50415 49.4863 4.39647 49.6111 4.28882Z" fill="url(#paint9_linear_3825_5333)"/>
<path opacity="0.56" d="M59.9501 2.26099C59.9501 2.38661 59.9501 2.49427 59.9501 2.60194C59.9501 2.70962 59.968 2.81727 59.9859 2.92495C60.0036 3.0326 60.0394 3.12234 60.075 3.22999C60.1106 3.33767 60.1464 3.44534 60.182 3.57095C60.0571 3.51711 59.968 3.42739 59.8968 3.31973C59.8255 3.21206 59.772 3.08645 59.7364 2.96084C59.7185 2.83523 59.7185 2.69166 59.7541 2.56605C59.772 2.49427 59.7899 2.44044 59.8255 2.38661C59.8611 2.35072 59.8968 2.29688 59.9501 2.26099Z" fill="url(#paint10_linear_3825_5333)"/>
</g>
<defs>
<radialGradient id="paint0_radial_3825_5333" cx="0" cy="0" r="1" gradientUnits="userSpaceOnUse" gradientTransform="translate(38.0118 31.2455) scale(18.9726 19.1)">
<stop offset="0.1283" stop-color="#8119FF"/>
<stop offset="0.8645" stop-color="#00E3E3"/>
</radialGradient>
<radialGradient id="paint1_radial_3825_5333" cx="0" cy="0" r="1" gradientUnits="userSpaceOnUse" gradientTransform="translate(2.63596 70.8158) scale(47.8377 48.1589)">
<stop offset="0.1283" stop-color="#8119FF"/>
<stop offset="0.8645" stop-color="#00E3E3"/>
</radialGradient>
<linearGradient id="paint2_linear_3825_5333" x1="13.3278" y1="35.207" x2="43.2259" y2="62.3157" gradientUnits="userSpaceOnUse">
<stop stop-color="#B9B9B9"/>
<stop offset="0.051021" stop-color="#CACACA" stop-opacity="0.8919"/>
<stop offset="0.1395" stop-color="#E1E1E1" stop-opacity="0.7046"/>
<stop offset="0.2342" stop-color="#F2F2F2" stop-opacity="0.5039"/>
<stop offset="0.3388" stop-color="#FCFCFC" stop-opacity="0.2824"/>
<stop offset="0.4721" stop-color="white" stop-opacity="0"/>
<stop offset="0.5772" stop-color="#FAFAFA" stop-opacity="0.2246"/>
<stop offset="0.6949" stop-color="#EDEDED" stop-opacity="0.4761"/>
<stop offset="0.8181" stop-color="#D7D7D7" stop-opacity="0.7395"/>
<stop offset="0.94" stop-color="#B9B9B9"/>
</linearGradient>
<linearGradient id="paint3_linear_3825_5333" x1="33.5208" y1="11.177" x2="59.3479" y2="36.5728" gradientUnits="userSpaceOnUse">
<stop stop-color="white" stop-opacity="0.8"/>
<stop offset="0.0452823" stop-color="white" stop-opacity="0.752"/>
<stop offset="0.4721" stop-color="white" stop-opacity="0.3"/>
<stop offset="0.94" stop-color="white" stop-opacity="0.8"/>
</linearGradient>
<radialGradient id="paint4_radial_3825_5333" cx="0" cy="0" r="1" gradientUnits="userSpaceOnUse" gradientTransform="translate(52.6126 25.1034) scale(23.882 24.0421)">
<stop offset="0.1283" stop-color="#8119FF"/>
<stop offset="0.8645" stop-color="#00E3E3"/>
</radialGradient>
<radialGradient id="paint5_radial_3825_5333" cx="0" cy="0" r="1" gradientUnits="userSpaceOnUse" gradientTransform="translate(46.9686 12.0553) scale(15.1716 15.2735)">
<stop offset="0.1283" stop-color="#8119FF"/>
<stop offset="0.8645" stop-color="#00E3E3"/>
</radialGradient>
<radialGradient id="paint6_radial_3825_5333" cx="0" cy="0" r="1" gradientUnits="userSpaceOnUse" gradientTransform="translate(57.9996 7.31497) scale(10.7279 10.8)">
<stop offset="0.1283" stop-color="#8119FF"/>
<stop offset="0.8645" stop-color="#00E3E3"/>
</radialGradient>
<linearGradient id="paint7_linear_3825_5333" x1="2.06833" y1="59.2916" x2="14.5489" y2="55.1942" gradientUnits="userSpaceOnUse">
<stop offset="0.2105" stop-color="#B9B9B9" stop-opacity="0.3"/>
<stop offset="0.252" stop-color="#CFCFCF" stop-opacity="0.2372"/>
<stop offset="0.3122" stop-color="#E9E9E9" stop-opacity="0.1459"/>
<stop offset="0.3663" stop-color="#F9F9F9" stop-opacity="0.0639465"/>
<stop offset="0.4085" stop-color="white" stop-opacity="0"/>
<stop offset="0.5279" stop-color="#FAFAFA" stop-opacity="0.0673787"/>
<stop offset="0.6616" stop-color="#EDEDED" stop-opacity="0.1428"/>
<stop offset="0.8016" stop-color="#D7D7D7" stop-opacity="0.2219"/>
<stop offset="0.94" stop-color="#B9B9B9" stop-opacity="0.3"/>
</linearGradient>
<linearGradient id="paint8_linear_3825_5333" x1="54.547" y1="16.2834" x2="59.6438" y2="14.6101" gradientUnits="userSpaceOnUse">
<stop offset="0.2105" stop-color="#B9B9B9" stop-opacity="0.3"/>
<stop offset="0.252" stop-color="#CFCFCF" stop-opacity="0.2372"/>
<stop offset="0.3122" stop-color="#E9E9E9" stop-opacity="0.1459"/>
<stop offset="0.3663" stop-color="#F9F9F9" stop-opacity="0.0639465"/>
<stop offset="0.4085" stop-color="white" stop-opacity="0"/>
<stop offset="0.5279" stop-color="#FAFAFA" stop-opacity="0.0673787"/>
<stop offset="0.6616" stop-color="#EDEDED" stop-opacity="0.1428"/>
<stop offset="0.8016" stop-color="#D7D7D7" stop-opacity="0.2219"/>
<stop offset="0.94" stop-color="#B9B9B9" stop-opacity="0.3"/>
</linearGradient>
<linearGradient id="paint9_linear_3825_5333" x1="48.2727" y1="6.35118" x2="51.9877" y2="5.13151" gradientUnits="userSpaceOnUse">
<stop offset="0.2105" stop-color="#B9B9B9" stop-opacity="0.3"/>
<stop offset="0.252" stop-color="#CFCFCF" stop-opacity="0.2372"/>
<stop offset="0.3122" stop-color="#E9E9E9" stop-opacity="0.1459"/>
<stop offset="0.3663" stop-color="#F9F9F9" stop-opacity="0.0639465"/>
<stop offset="0.4085" stop-color="white" stop-opacity="0"/>
<stop offset="0.5279" stop-color="#FAFAFA" stop-opacity="0.0673787"/>
<stop offset="0.6616" stop-color="#EDEDED" stop-opacity="0.1428"/>
<stop offset="0.8016" stop-color="#D7D7D7" stop-opacity="0.2219"/>
<stop offset="0.94" stop-color="#B9B9B9" stop-opacity="0.3"/>
</linearGradient>
<linearGradient id="paint10_linear_3825_5333" x1="59.3784" y1="3.14202" x2="60.9857" y2="2.61431" gradientUnits="userSpaceOnUse">
<stop offset="0.2105" stop-color="#B9B9B9" stop-opacity="0.3"/>
<stop offset="0.252" stop-color="#CFCFCF" stop-opacity="0.2372"/>
<stop offset="0.3122" stop-color="#E9E9E9" stop-opacity="0.1459"/>
<stop offset="0.3663" stop-color="#F9F9F9" stop-opacity="0.0639465"/>
<stop offset="0.4085" stop-color="white" stop-opacity="0"/>
<stop offset="0.5279" stop-color="#FAFAFA" stop-opacity="0.0673787"/>
<stop offset="0.6616" stop-color="#EDEDED" stop-opacity="0.1428"/>
<stop offset="0.8016" stop-color="#D7D7D7" stop-opacity="0.2219"/>
<stop offset="0.94" stop-color="#B9B9B9" stop-opacity="0.3"/>
</linearGradient>
<clipPath id="clip0_3825_5333">
<rect width="64" height="70" fill="white"/>
</clipPath>
</defs>
</svg>
