<svg width="164" height="24" viewBox="0 0 164 24" fill="none" xmlns="http://www.w3.org/2000/svg">
<path d="M28.442 16.798H19.642L15.326 23.998H32.756L28.442 16.798ZM44.534 3.525C43.4209 2.40839 42.0986 1.52228 40.6426 0.917409C39.1866 0.312539 37.6256 0.000787248 36.049 0H12.014C8.83246 0.00764104 5.78321 1.27393 3.5322 3.52232C1.2812 5.7707 0.0113508 8.81847 1.59729e-07 12C-0.000486045 14.9715 1.10903 17.8361 3.111 20.032L3.131 20.057C3.263 20.197 3.392 20.338 3.531 20.475C3.67 20.612 3.808 20.741 3.949 20.875L3.972 20.895C6.17437 22.8946 9.04232 24.0025 12.017 24.003H13.226L13.782 23.076L17.546 16.802H12.014C10.741 16.802 9.52006 16.2963 8.61989 15.3961C7.71971 14.4959 7.214 13.275 7.214 12.002C7.214 10.729 7.71971 9.50806 8.61989 8.60789C9.52006 7.70771 10.741 7.202 12.014 7.202H36.045C37.318 7.202 38.5389 7.70771 39.4391 8.60789C40.3393 9.50806 40.845 10.729 40.845 12.002C40.845 13.275 40.3393 14.4959 39.4391 15.3961C38.5389 16.2963 37.318 16.802 36.045 16.802H30.545L34.305 23.076L34.861 24.003H36.047C38.4227 24.0101 40.7468 23.3108 42.7242 21.9941C44.7016 20.6774 46.243 18.8026 47.1525 16.6079C48.0621 14.4133 48.2988 11.9978 47.8326 9.66831C47.3663 7.33884 46.2182 5.20052 44.534 3.525ZM28.442 16.798H19.642L15.326 23.998H32.756L28.442 16.798Z" fill="white"/>
<path d="M32.7552 23.9961H15.3242L19.6402 16.7891H28.4402L32.7552 23.9961Z" fill="#55F7FF"/>
<path d="M65.283 6.24019C64.8594 5.90389 64.3979 5.61828 63.908 5.38919C63.1802 5.04057 62.3829 4.86141 61.576 4.86519C60.7636 4.82541 59.9535 4.98195 59.2144 5.32156C58.4753 5.66116 57.829 6.17384 57.33 6.81619C56.2687 8.37242 55.7509 10.2355 55.857 12.1162C55.7409 13.9532 56.2172 15.779 57.216 17.3252C57.6796 17.9348 58.285 18.4222 58.9796 18.7449C59.6742 19.0676 60.4371 19.216 61.202 19.1772C62.4848 19.1797 63.7371 18.7854 64.787 18.0482V23.6772H68.569V5.23619H65.627L65.283 6.24019ZM62.059 15.7772C61.7128 15.8045 61.3659 15.734 61.0578 15.5736C60.7498 15.4132 60.4931 15.1695 60.317 14.8702C59.884 14.003 59.6845 13.038 59.738 12.0702C59.6841 11.0743 59.9379 10.0859 60.465 9.23919C60.66 8.9323 60.9307 8.68071 61.251 8.50857C61.5713 8.33642 61.9304 8.24952 62.294 8.25619C62.7567 8.26332 63.2133 8.36295 63.637 8.54919C64.0555 8.72421 64.4442 8.96342 64.789 9.25819V14.6772C64.4175 14.9895 64.0025 15.2458 63.557 15.4382C63.0863 15.6553 62.5753 15.7712 62.057 15.7782" fill="white"/>
<path d="M80.5211 14.0621C79.7112 14.9789 78.604 15.5809 77.3941 15.7621C77.0806 15.786 76.7675 15.7096 76.5001 15.5441C76.2701 15.32 76.1228 15.0246 76.0821 14.7061C75.9625 14.0336 75.9109 13.3508 75.9282 12.6681V5.23706H72.1511V14.1941C72.0762 15.4745 72.4031 16.7464 73.0861 17.8321C73.4893 18.3085 74.0026 18.6794 74.5814 18.9127C75.1603 19.146 75.7873 19.2347 76.4082 19.1711C77.2667 19.156 78.1112 18.9511 78.8811 18.5711C79.4731 18.2937 80.0248 17.9375 80.5211 17.5121V18.7871H84.3032V5.23706H80.5211V14.0621Z" fill="white"/>
<path d="M97.7236 5.98716C96.3651 5.12955 94.765 4.73584 93.1636 4.86516C91.968 4.8353 90.7784 5.04298 89.6636 5.47616C88.7546 5.82523 87.984 6.46098 87.4686 7.28716L87.3236 7.53016L90.3136 9.45016L90.4656 9.17716C90.6876 8.78915 91.0303 8.48434 91.4416 8.30916C91.9677 8.08365 92.5364 7.97449 93.1086 7.98916C93.719 7.95084 94.3286 8.0747 94.8756 8.34816C95.0643 8.49083 95.2117 8.68115 95.3025 8.8996C95.3934 9.11804 95.4245 9.35673 95.3926 9.59116V9.90716L92.9176 10.1432C91.7901 10.2176 90.6816 10.4708 89.6336 10.8932C88.896 11.2142 88.2697 11.7462 87.8336 12.4222C87.4056 13.1647 87.1949 14.0126 87.2256 14.8692C87.2062 15.4402 87.3011 16.0093 87.5046 16.5432C87.7081 17.077 88.0161 17.5649 88.4106 17.9782C88.875 18.4073 89.4221 18.737 90.0184 18.9472C90.6148 19.1573 91.2478 19.2434 91.8786 19.2002C93.2582 19.1814 94.5895 18.6892 95.6496 17.8062V18.8162H99.1716V9.69216C99.2323 9.00477 99.1324 8.31267 98.8797 7.67054C98.627 7.0284 98.2285 6.45381 97.7156 5.99216M95.3896 12.8172V14.8352C94.9427 15.1984 94.4498 15.501 93.9236 15.7352C93.5171 15.9338 93.0752 16.0497 92.6236 16.0762C92.2209 16.0969 91.8208 15.9996 91.4726 15.7962C91.3358 15.6763 91.2309 15.5244 91.1672 15.3541C91.1035 15.1838 91.083 15.0003 91.1076 14.8202C91.0909 14.57 91.1405 14.3199 91.2515 14.0952C91.3625 13.8704 91.5308 13.6789 91.7396 13.5402C92.4643 13.1576 93.2683 12.949 94.0876 12.9312L95.3896 12.8172Z" fill="white"/>
<path d="M110.67 4.86495C109.848 4.87579 109.039 5.06194 108.295 5.41095C107.659 5.70316 107.068 6.08468 106.54 6.54395V5.23695H102.758V18.8169H106.54V9.97695C107.352 9.05294 108.463 8.44463 109.679 8.25895C109.897 8.22988 110.119 8.2641 110.318 8.35754C110.517 8.45097 110.685 8.59968 110.802 8.78595C111.096 9.61052 111.209 10.4888 111.133 11.3609V18.8169H114.915V9.85295C115.032 8.5007 114.658 7.15141 113.861 6.05295C113.445 5.63747 112.945 5.31638 112.395 5.11154C111.844 4.90671 111.256 4.82195 110.67 4.86495Z" fill="white"/>
<path d="M125.47 15.6401C124.953 15.8592 124.397 15.9738 123.835 15.9771C123.677 15.9887 123.519 15.9648 123.372 15.9072C123.224 15.8496 123.092 15.7596 122.984 15.6441C122.722 15.207 122.614 14.6946 122.678 14.1891V8.36107H125.701V5.23607H122.68V1.62207H118.898V5.23907H117.25V8.36407H118.898V14.6001C118.789 15.862 119.175 17.1168 119.973 18.1001C120.447 18.5041 120.996 18.8095 121.59 18.9983C122.183 19.1872 122.808 19.2558 123.428 19.2001C124.376 19.2028 125.319 19.0681 126.228 18.8001L126.487 18.7231L125.8 15.5001L125.47 15.6401Z" fill="white"/>
<path d="M136.784 14.0621C135.974 14.9789 134.867 15.5809 133.657 15.7621C133.343 15.7859 133.03 15.7096 132.763 15.5441C132.533 15.32 132.386 15.0246 132.345 14.7061C132.225 14.0336 132.174 13.3508 132.191 12.6681V5.23706H128.409V14.1941C128.334 15.4745 128.661 16.7464 129.344 17.8321C129.747 18.3083 130.261 18.6792 130.839 18.9125C131.418 19.1458 132.045 19.2345 132.666 19.1711C133.524 19.156 134.369 18.9511 135.139 18.5711C135.732 18.2948 136.286 17.9396 136.784 17.5151V18.7901H140.566V5.23706H136.784V14.0621Z" fill="white"/>
<path d="M162.535 6.05195C162.162 5.63724 161.697 5.31437 161.179 5.10849C160.66 4.9026 160.1 4.81926 159.544 4.86496C158.702 4.84726 157.87 5.04776 157.128 5.44696C156.471 5.83227 155.863 6.29527 155.316 6.82595C155.114 6.28693 154.759 5.81849 154.295 5.47796C153.523 5.01307 152.626 4.79891 151.727 4.86496C150.92 4.85692 150.124 5.05738 149.416 5.44696C148.897 5.74126 148.415 6.09681 147.981 6.50596V5.23696H144.199V18.818H147.981V9.96996C148.436 9.46925 148.958 9.0338 149.532 8.67596C149.9 8.43576 150.322 8.29358 150.76 8.26296C150.888 8.23092 151.021 8.22831 151.149 8.2553C151.278 8.2823 151.398 8.3382 151.502 8.41876C151.606 8.49933 151.69 8.60245 151.748 8.7203C151.805 8.83815 151.836 8.96764 151.836 9.09896C151.922 9.68517 151.958 10.2777 151.942 10.87V18.819H155.724V9.96495C156.138 9.50794 156.606 9.10267 157.117 8.75796C157.52 8.45848 158.002 8.28455 158.503 8.25796C158.76 8.22968 159.019 8.28698 159.24 8.42096C159.418 8.61722 159.528 8.86541 159.554 9.12896C159.655 9.70194 159.698 10.2834 159.685 10.865V18.814H163.467V9.85296C163.586 8.51802 163.258 7.1814 162.535 6.05296" fill="white"/>
</svg>
