<svg width="164" height="66" viewBox="0 0 164 66" fill="none" xmlns="http://www.w3.org/2000/svg">
<path d="M5.00856 45.5367L0 40.5207V25.4793L5.00856 20.4666H20.031L25.0395 25.4793V29.2413L13.9925 40.8375H25.0395V44.286L23.7866 45.54H5.00856V45.5367ZM5.00856 27.2349V38.7684L7.07496 40.8375L20.031 27.2349L17.9646 25.1658H7.07496L5.00856 27.2349Z" fill="white"/>
<path d="M48.8261 45.5367V27.2349L46.7597 25.1658H37.1198L35.0534 27.2349V45.5367H30.0448V25.4793L35.0534 20.4666H48.8261L53.8346 25.4793V45.5367H48.8261Z" fill="white"/>
<path d="M81.3735 40.8342V45.5334H63.8452L58.8366 40.5207V25.4793L63.8452 20.4666H80.1206L81.3735 21.7206V25.1691H65.9116L63.8452 27.2382V38.7717L65.9116 40.8408H81.3735V40.8342Z" fill="white"/>
<path d="M105.787 20.4633L110.795 25.476V40.5174L105.787 45.5301H90.7642L85.7556 40.5174V25.476L90.7642 20.4633H105.787ZM105.787 38.7651V27.2316L103.72 25.1625H92.8273L90.7609 27.2316V38.7651L92.8273 40.8342H103.72L105.787 38.7651Z" fill="white"/>
<path d="M120.809 20.4633H134.582V29.238H129.573V25.1625H122.875L120.809 27.2316V45.5334H115.8V25.476L120.809 20.4633Z" fill="white"/>
<path d="M143.969 45.5367L138.96 40.524V25.4826L143.969 20.4699H158.991L164 25.4826V29.2446L152.953 40.8408H164V44.2893L162.747 45.5433H143.969V45.5367ZM143.969 27.2349V38.7684L146.035 40.8375L158.991 27.2349L156.925 25.1658H146.032L143.966 27.2349H143.969Z" fill="white"/>
<path d="M158.991 50.5527V59.2317L156.925 61.3008H7.07168L5.00528 59.2317V50.5527H0V60.984L5.00528 66H158.988L163.997 60.984V50.5527H158.988H158.991Z" fill="#1DE897"/>
<path d="M5.01184 15.4473V6.7683L7.07824 4.6992H156.932L158.998 6.7683V15.4473H164.003V5.016L158.998 0H5.01184L0 5.016V15.4473H5.01184Z" fill="#1DE897"/>
<path d="M120.806 7.854H115.8V11.0055H120.806V7.854Z" fill="#1DE897"/>
<path d="M120.806 14.1603H115.8V17.3118H120.806V14.1603Z" fill="#1DE897"/>
<path d="M120.806 48.6882H115.8V51.8397H120.806V48.6882Z" fill="#1DE897"/>
<path d="M120.806 54.9912H115.8V58.1427H120.806V54.9912Z" fill="#1DE897"/>
</svg>
