<svg width="52" height="70" viewBox="0 0 52 70" fill="none" xmlns="http://www.w3.org/2000/svg">
<path fill-rule="evenodd" clip-rule="evenodd" d="M12.2328 17.0515C4.40657 24.2722 0.922059 27.487 0.163343 31.2518C-0.445109 34.27 0.69647 37.6436 2.7534 43.7216L2.8662 44.0552C9.08352 62.4318 26.8924 37.2883 26.8924 37.2883C26.8924 37.2883 22.7195 31.6209 17.0501 35.808C30.7071 21.6184 34.29 17.0506 34.6483 10.7489C35.0066 4.44707 30.103 0 30.103 0C22.5427 7.53941 16.6851 12.9437 12.2328 17.0515ZM39.7667 52.9486C47.5931 45.7279 51.0775 42.5131 51.8367 38.7483C52.4451 35.73 51.3032 32.3565 49.2459 26.2786L49.1335 25.9449C42.916 7.56812 25.1072 32.7117 25.1072 32.7117C25.1072 32.7117 29.2802 38.3791 34.9495 34.1921C21.2926 48.3816 17.7097 52.9495 17.3513 59.2509C16.993 65.5529 21.8966 70 21.8966 70C29.457 62.4603 35.3144 57.0564 39.7667 52.9486Z" fill="#EBE9FF"/>
</svg>
