<svg width="253" height="283" viewBox="0 0 253 283" fill="none" xmlns="http://www.w3.org/2000/svg">
<path d="M85.439 18.9979C28.9093 55.1819 12.0708 130.886 47.8297 188.088L252.542 57.0543C216.783 -0.147391 141.969 -17.1857 85.439 18.9979Z" fill="#00AE98"/>
<path d="M167.1 263.022C110.572 299.204 35.7599 282.168 0 224.97L0.00168716 224.962L204.704 93.9351L204.712 93.9368C240.467 151.138 223.628 226.839 167.1 263.022Z" fill="#0082A0"/>
<path d="M109.628 205.619L109.732 157.116C109.732 157.116 109.506 155.037 107.433 155.037C105.36 155.037 85.6573 155.015 85.6573 155.015C85.6573 155.015 82.6036 155.184 82.6103 152.37C82.6195 148.486 82.6103 122.11 82.6103 122.11C82.6103 122.11 82.3296 119.352 85.4609 119.338C89.2778 119.321 94.5649 119.298 94.5649 119.298C96.3877 119.338 97.3919 120.042 97.3956 122.089C97.4 124.399 97.4233 135.718 97.4233 135.718C97.4233 135.718 97.2785 137.582 99.1731 137.582C100.75 137.582 108.189 137.577 108.189 137.577C108.189 137.577 109.936 137.659 109.938 135.718C109.939 133.608 110.019 74.9944 110.019 74.9944C110.019 74.9944 110.003 72.1782 113.15 72.1782C116.298 72.1782 134.951 72.1782 134.951 72.1782C134.951 72.1782 138.042 72.1762 138.136 74.9944C138.235 77.9512 138.14 119.176 138.14 119.176C138.14 119.176 138.458 121.225 140.074 121.225C141.847 121.225 149.655 121.225 149.655 121.225C149.655 121.225 151.518 121.286 151.529 119.176C151.542 116.729 151.482 98.6524 151.482 98.6524C151.482 98.6524 151.311 96.4908 154.026 96.4908C156.742 96.4908 165.48 96.4843 165.48 96.4843C165.48 96.4843 167.899 96.2487 167.899 98.6524C167.899 100.981 167.899 135.932 167.899 135.932C167.899 135.932 167.984 139.447 164.247 139.487C161.236 139.52 140.333 139.487 140.333 139.487C140.333 139.487 138.133 139.458 138.136 141.886C138.14 144.38 138.059 205.619 138.059 205.619C138.059 205.619 138.168 207.628 136.074 207.628C134.42 207.628 111.04 207.628 111.04 207.628C111.04 207.628 109.628 207.627 109.628 205.619Z" fill="#222222"/>
</svg>
